<svg viewBox="0 0 96 96" xmlns="http://www.w3.org/2000/svg" xmlns:xlink="http://www.w3.org/1999/xlink" id="Icons_Folder_M" overflow="hidden"><g id="Icons"><path d="M15 76.021 81 76.021C83.2062 76.0139 84.9929 74.2272 85 72.021L85 32.009C84.9929 29.8028 83.2062 28.0161 81 28.009L47 28.009 36 20.709C35.3704 20.2268 34.5924 19.9793 33.8 20.009L15 20.009C12.7936 20.0156 11.0066 21.8026 11 24.009L11 72.02C11.006 74.2268 12.7932 76.0144 15 76.021ZM13 24.007C13 22.9024 13.8954 22.007 15 22.007L33.8 22.007C34.1238 21.9842 34.4463 22.067 34.719 22.243L34.803 22.313 34.894 22.373 45.894 29.673 46.394 30.007 81 30.007C82.1046 30.007 83 30.9024 83 32.007L83 72.02C83 73.1246 82.1046 74.02 81 74.02L15 74.02C13.8954 74.02 13 73.1246 13 72.02Z"/></g></svg>