<svg viewBox="0 0 96 96" xmlns="http://www.w3.org/2000/svg" xmlns:xlink="http://www.w3.org/1999/xlink" id="Icons_Contract_RTL_M" overflow="hidden"><g id="Icons"><path d="M78 8 18 8 18 88 78 88ZM76 86 20 86 20 10 76 10Z"/><rect x="28" y="23" width="40" height="2"/><rect x="28" y="31" width="40" height="2"/><rect x="28" y="39" width="40" height="2"/><rect x="48" y="47" width="20" height="2"/><rect x="28" y="67" width="20" height="2"/><path d="M56.207 61.293 61.25 66.336 66.293 61.293 67.707 62.707 62.664 67.75 67.707 72.793 66.293 74.207 61.25 69.164 56.207 74.207 54.793 72.793 59.836 67.75 54.793 62.707 56.207 61.293Z"/></g></svg>