<svg viewBox="0 0 80 80" xmlns="http://www.w3.org/2000/svg" xmlns:xlink="http://www.w3.org/1999/xlink" id="iconen_Wit" overflow="hidden"><style>
.MsftOfcThm_Background1_Fill_v2 {
 fill:#FFFFFF; 
}
</style>
<defs></defs><path d="M35.3106 36.0865C35.4288 36.1226 39.0567 37.275 43.7169 41.4175 47.6481 44.9103 64.6079 57.2335 72.79 52.083 72.0612 49.1303 67.0644 48.0378 67.0644 48.0378 64.6456 47.2001 62.5427 45.6392 61.0405 43.5665 60.7593 43.17 60.4963 42.8065 60.2449 42.4594L56.9415 44.1695C56.2058 44.5503 55.3008 44.2626 54.92 43.5269 54.5392 42.7913 54.8269 41.8862 55.5626 41.5054L58.527 39.9708C57.9431 39.0332 57.4266 38.0552 56.9816 37.0443L54.3585 38.4019C53.6223 38.7816 52.7176 38.4927 52.3379 37.7565 51.9589 37.0217 52.2459 36.1189 52.9795 35.7379L55.8592 34.2474C55.6305 33.624 55.3932 32.9526 55.1407 32.2017 55.007 31.8044 54.883 31.427 54.7644 31.0621L51.6153 32.692C50.8791 33.0717 49.9745 32.7827 49.5947 32.0465 49.2158 31.3118 49.5028 30.409 50.2364 30.0279L53.8493 28.158C52.7468 24.6069 52.3773 23.6167 50.6694 24.3762 48.6744 25.457 46.8006 26.748 45.0801 28.2272 45.0801 28.2272 41.416 28.5923 39.0561 26.6399 36.6962 24.6873 34.15 20.837 32.0386 22.1411 29.9271 23.4453 28.064 28.9103 26.5736 30.0903 26.466 30.1754 26.346 30.2769 26.2199 30.3878 27.168 31.8392 29.5168 34.1433 35.3106 36.0865ZM18.586 29.9703 11.3067 29.9703C10.4783 29.9703 9.8067 30.6419 9.8067 31.4703 9.8067 32.2987 10.4783 32.9703 11.3067 32.9703L18.586 32.9703C19.4144 32.9703 20.086 32.2987 20.086 31.4703 20.086 30.6419 19.4144 29.9703 18.586 29.9703ZM16.6534 36.4068 9.37311 36.4068C8.54468 36.4068 7.87311 37.0784 7.87311 37.9068 7.87311 38.7352 8.54468 39.4068 9.37311 39.4068L16.6534 39.4068C17.4818 39.4068 18.1534 38.7352 18.1534 37.9068 18.1534 37.0784 17.4818 36.4068 16.6534 36.4068ZM21.1827 23.5328 8.71 23.5328C7.88157 23.5328 7.21 24.2044 7.21 25.0328 7.21 25.8612 7.88157 26.5328 8.71 26.5328L21.1827 26.5328C22.0111 26.5328 22.6827 25.8612 22.6827 25.0328 22.6827 24.2044 22.0111 23.5328 21.1827 23.5328ZM41.7247 43.6598C39.5975 41.6378 37.1072 40.0364 34.3848 38.94 28.6203 37.007 25.6766 34.636 24.1696 32.701 23.0665 34.3213 22.3242 36.376 23.4063 38.2878 25.2694 41.5792 36.1994 45.119 36.1994 45.119 38.3268 45.9731 40.3653 47.0339 42.2855 48.2862 45.018 50.1493 55.2028 56.7322 60.171 57.7258 64.1635 58.5243 69.0892 58.2205 71.4941 55.8707 70.371 56.164 69.2145 56.3098 68.0538 56.3042 58.4297 56.3043 46.2364 47.6705 41.7247 43.6597Z" class="MsftOfcThm_Background1_Fill_v2" fill="#FFFFFF"/></svg>