<svg width="186.49" height="77" viewBox="0 0 186.49 77" xmlns="http://www.w3.org/2000/svg" xmlns:xlink="http://www.w3.org/1999/xlink" id="logo" xml:space="preserve" overflow="hidden"><rect x="0" y="0" width="44" height="77" fill="#154273"/><path d="M22.76 57.01 22 57.01 22 54.89 22.76 54.89 22.76 57.01ZM26.21 47.66 25.45 47.66 25.45 45.54 26.21 45.54 26.21 47.66ZM12.05 44C11.99 44 11.6 44 11.6 44.08 11.6 44.16 11.78 44.12 12.05 44.17 12.66 44.27 12.9 44.58 13.33 44.58 13.72 44.58 14.12 44.32 13.96 43.75 13.93 43.66 13.88 43.68 13.87 43.74 13.81 43.99 13.5 44.14 13.17 44.14 12.77 44.14 12.68 44 12.05 44ZM7.84 46.12C7.91 46.21 8.63 47.15 7.52 47.51 7.47 47.53 7.45 47.57 7.53 47.61 8.35 47.95 8.75 47.32 8.75 47.32 9.16 48.26 8.53 48.78 8.53 48.78 8.62 48.95 9.01 49.23 9.6 49.37 9.82 49.25 10.14 49.02 10.27 48.66 10.27 48.66 10.43 49.07 10.28 49.46 11.95 49.61 12.54 48.28 13.83 48.52 13.87 48.53 13.88 48.5 13.88 48.46 13.88 47.64 13.38 46.13 11.78 45.82 10.19 45.51 10.62 44.86 10.62 44.86 11.29 44.83 11.68 45.12 11.68 45.12 11.8 44.92 11.63 44.7 11.63 44.7 11.69 44.62 11.73 44.35 11.73 44.35 10.98 44.35 10.78 44.19 10.78 44.19 10.66 43.74 10.98 43.11 12.1 43.79 12.38 43.54 12.36 43.16 12.36 43.16 12.44 43.12 12.5 42.99 12.5 42.93 12.5 42.74 11.6 42.24 11.37 42.18 11.31 41.91 10.97 41.52 9.91 41.66 9.41 41.72 9.05 41.59 9.22 41.3 9.25 41.25 9.16 41.24 9.11 41.29 8.99 41.41 8.84 41.73 9.27 41.95 9.75 42.19 9.78 42.68 9.79 42.75 9.8 42.85 9.67 42.86 9.65 42.76 9.43 41.94 8.31 41.77 7.65 42.2 7.69 42.64 8.16 42.93 8.42 42.93 8.57 42.93 8.77 42.78 8.77 42.58 8.77 42.48 8.82 42.49 8.85 42.57 8.96 42.86 8.53 43.46 7.89 43.1 7.24 43.75 7.5 44.56 7.56 44.85 7.68 45.38 7.42 45.9 6.94 45.66 6.92 45.65 6.89 45.64 6.89 45.7 6.89 46.03 7.32 46.41 7.84 46.12ZM11.42 42.84C11.12 43.18 10.62 43.1 10.5 42.54 11.13 42.51 11.4 42.57 11.42 42.84ZM30.82 44.14C30.49 44.14 30.18 44 30.12 43.74 30.11 43.68 30.05 43.65 30.03 43.75 29.87 44.31 30.27 44.58 30.66 44.58 31.09 44.58 31.33 44.27 31.94 44.17 32.21 44.12 32.39 44.17 32.39 44.08 32.39 44 31.99 44 31.94 44 31.31 44 31.23 44.14 30.82 44.14ZM37.11 45.7C37.11 45.64 37.09 45.65 37.06 45.66 36.58 45.9 36.32 45.38 36.44 44.85 36.51 44.55 36.77 43.75 36.11 43.1 35.47 43.47 35.04 42.86 35.15 42.57 35.18 42.49 35.23 42.48 35.23 42.58 35.23 42.78 35.44 42.93 35.58 42.93 35.84 42.93 36.31 42.64 36.35 42.2 35.69 41.77 34.57 41.94 34.35 42.76 34.32 42.86 34.2 42.85 34.21 42.75 34.21 42.68 34.24 42.19 34.73 41.95 35.17 41.73 35.01 41.41 34.89 41.29 34.84 41.24 34.75 41.25 34.78 41.3 34.95 41.59 34.59 41.72 34.09 41.66 33.04 41.52 32.69 41.91 32.63 42.18 32.4 42.24 31.5 42.74 31.5 42.93 31.5 42.99 31.55 43.12 31.64 43.16 31.64 43.16 31.62 43.54 31.9 43.79 33.02 43.11 33.33 43.75 33.22 44.19 33.22 44.19 33.02 44.35 32.27 44.35 32.27 44.35 32.31 44.62 32.37 44.7 32.37 44.7 32.2 44.92 32.32 45.12 32.32 45.12 32.71 44.83 33.38 44.86 33.38 44.86 33.81 45.51 32.22 45.82 30.63 46.13 30.12 47.63 30.12 48.46 30.12 48.5 30.14 48.52 30.17 48.52 31.46 48.28 32.05 49.62 33.72 49.46 33.57 49.07 33.73 48.66 33.73 48.66 33.86 49.01 34.18 49.25 34.4 49.37 34.99 49.24 35.38 48.95 35.47 48.78 35.47 48.78 34.84 48.26 35.25 47.32 35.25 47.32 35.65 47.95 36.47 47.61 36.54 47.58 36.53 47.53 36.48 47.51 35.37 47.15 36.09 46.22 36.16 46.12 36.68 46.41 37.11 46.03 37.11 45.7ZM33.49 42.54C33.37 43.1 32.87 43.18 32.57 42.84 32.6 42.57 32.87 42.51 33.49 42.54ZM21.71 33.15C21.71 33.29 21.77 33.41 21.82 33.48 21.92 33.62 21.9 33.7 21.86 33.74 21.81 33.79 21.74 33.8 21.6 33.7 21.53 33.65 21.41 33.59 21.27 33.59 21.03 33.59 20.91 33.75 20.91 33.88 20.91 34.02 21.03 34.17 21.27 34.17 21.41 34.17 21.53 34.11 21.6 34.06 21.74 33.96 21.82 33.98 21.86 34.02 21.91 34.07 21.84 34.55 21.78 34.93 21.38 35.01 21.19 35.33 21.19 35.52 21.19 36 21.7 36.28 22.01 36.44 22.31 36.28 22.83 36 22.83 35.52 22.83 35.33 22.64 35.01 22.24 34.93 22.19 34.55 22.12 34.06 22.16 34.02 22.21 33.97 22.28 33.96 22.42 34.06 22.49 34.11 22.61 34.17 22.75 34.17 22.99 34.17 23.11 34.01 23.11 33.88 23.11 33.74 22.99 33.59 22.75 33.59 22.61 33.59 22.49 33.65 22.42 33.7 22.28 33.8 22.2 33.78 22.16 33.74 22.11 33.69 22.1 33.62 22.2 33.48 22.25 33.41 22.31 33.29 22.31 33.15 22.31 32.91 22.15 32.79 22.02 32.79 21.86 32.79 21.71 32.91 21.71 33.15ZM22 36.72C21.68 36.72 21.41 36.98 21.41 37.31 21.41 37.63 21.67 37.9 22 37.9 22.32 37.9 22.59 37.64 22.59 37.31 22.59 36.98 22.32 36.72 22 36.72ZM22 42.35C24.35 42.35 25.67 42.8 25.67 42.8 25.68 41.62 25.67 40.95 26.35 41.05 25.98 40.05 27.58 39.66 27.58 38.37 27.58 37.52 26.98 37.42 26.8 37.42 26.27 37.42 26.35 37.77 25.9 37.77 25.84 37.77 25.79 37.76 25.79 37.8 25.79 37.95 25.92 38.2 26.12 38.2 26.4 38.2 26.4 37.92 26.61 37.92 26.7 37.92 26.83 37.99 26.83 38.28 26.83 38.83 26.47 39.44 26.04 39.92 25.94 39.78 25.81 39.7 25.65 39.7 25.4 39.7 25.18 39.96 25.18 40.29 25.18 40.41 25.2 40.5 25.24 40.6 25.1 40.68 24.97 40.72 24.88 40.72 24.69 40.72 24.4 40.64 24.4 40.22 24.4 39.28 25.66 38.45 25.66 37.26 25.66 36.69 25.28 36.12 24.49 36.12 23.64 36.12 23.8 36.9 23.06 36.9 23.03 36.9 23 36.91 23 36.94 23 36.99 23.13 37.42 23.51 37.42 23.92 37.42 24.03 36.71 24.39 36.71 24.53 36.71 24.73 36.79 24.73 37.27 24.73 37.64 24.55 38.24 24.28 38.82 24.18 38.72 24.05 38.65 23.91 38.65 23.59 38.65 23.37 38.96 23.37 39.32 23.37 39.55 23.46 39.77 23.62 39.92 23.43 40.16 23.24 40.35 22.99 40.35 22.48 40.35 22.26 40.06 22.26 39.75 22.26 39.41 22.88 39.29 22.88 38.75 22.88 38.39 22.65 38.18 22.42 38.18 22.18 38.18 22.05 38.34 22.03 38.34 22 38.34 21.88 38.18 21.64 38.18 21.41 38.18 21.18 38.38 21.18 38.75 21.18 39.28 21.8 39.41 21.8 39.75 21.8 40.06 21.58 40.35 21.07 40.35 20.81 40.35 20.62 40.16 20.44 39.92 20.6 39.77 20.69 39.55 20.69 39.32 20.69 38.95 20.46 38.65 20.15 38.65 20 38.65 19.87 38.72 19.78 38.82 19.52 38.24 19.33 37.64 19.33 37.27 19.33 36.79 19.53 36.71 19.67 36.71 20.03 36.71 20.15 37.42 20.55 37.42 20.93 37.42 21.06 36.99 21.06 36.94 21.06 36.91 21.03 36.9 21 36.9 20.26 36.9 20.42 36.12 19.57 36.12 18.78 36.12 18.4 36.69 18.4 37.26 18.4 38.45 19.66 39.28 19.66 40.22 19.66 40.64 19.37 40.72 19.18 40.72 19.08 40.72 18.96 40.67 18.82 40.6 18.86 40.5 18.88 40.41 18.88 40.29 18.88 39.96 18.66 39.7 18.41 39.7 18.25 39.7 18.12 39.78 18.02 39.92 17.59 39.45 17.23 38.83 17.23 38.28 17.23 38 17.36 37.92 17.45 37.92 17.66 37.92 17.66 38.2 17.94 38.2 18.15 38.2 18.27 37.94 18.27 37.8 18.27 37.76 18.21 37.77 18.16 37.77 17.71 37.77 17.79 37.42 17.26 37.42 17.08 37.42 16.48 37.52 16.48 38.37 16.48 39.67 18.08 40.06 17.71 41.05 18.39 40.95 18.38 41.61 18.39 42.8 18.33 42.8 19.65 42.35 22 42.35ZM17.7 44.1C17.06 44.24 16.6 44.37 16.4 44.43 16.41 44.15 16.52 43.89 16.77 43.83 16.8 43.82 16.81 43.78 16.78 43.76 16.21 43.38 15.91 44.11 15.9 44.13 15.7 44.11 15.39 44.18 15.39 44.45 15.39 45.27 13.53 45.72 13.09 45.78 13.85 46.07 14.17 47.03 14.17 47.03 14.72 46.48 15.37 45.99 15.51 45.99 15.66 45.99 15.71 46.17 15.72 46.28 15.72 46.32 15.76 46.33 15.78 46.3 16.07 45.87 15.93 45.77 15.91 45.64 15.89 45.54 15.92 45.16 16.34 45.21L16.34 50.65 16.12 50.69C16.02 50.71 15.23 50.03 14.31 49.4 13.4 48.77 12.91 49.15 11.87 49.71 10.51 50.45 9.14 49.78 9.14 49.78 7.97 50.62 7.57 53.04 7.57 53.04 7.34 53.14 6.95 53.25 6.58 53.25 5.69 53.25 5.52 52.71 5.52 52.38 5.52 51 7.25 50.41 7.25 49.05 7.25 48.72 7.1 47.38 5.44 47.38 5.23 47.38 3.96 47.38 3.95 47.38 3.33 47.38 3.17 46.93 3.09 46.76 3.06 46.7 3 46.74 3.02 46.79 3.07 46.9 2.95 47.08 2.95 47.42 2.95 47.97 3.27 48.3 3.88 48.3 4.16 48.3 4.41 48.22 4.5 48.17 4.56 48.14 4.59 48.19 4.56 48.22 4.3 48.53 4.28 49.1 4.38 49.24 4.41 49.27 4.44 49.26 4.44 49.24 4.59 48.66 5.13 48.1 5.87 48.1 6.77 48.1 6.77 48.87 6.77 49.05 6.77 50.16 4.82 50.97 4.82 52.49 4.82 54.04 6.45 54.37 7.4 54.12 7.34 55.67 5.57 56.19 5.52 55.09 5.52 55.04 5.48 55.02 5.45 55.09 5.23 55.64 5.31 56.12 6 56.27 6.05 56.28 6.02 56.31 5.98 56.34 5.31 56.79 5.68 58.5 5.71 59 5.76 59.72 5.04 59.64 4.98 59.62 4.95 59.61 4.92 59.62 4.97 59.68 5.48 60.3 6.11 59.73 6.11 59.73 6.59 59.88 6.29 60.29 5.97 60.5 5.92 60.53 5.92 60.57 5.98 60.57 6.05 60.57 6.79 60.64 6.92 60.05 7.25 60.44 7.73 60.3 7.83 60.25 7.97 60.18 8.66 59.93 8.73 60.7 8.73 60.76 8.77 60.72 8.79 60.69 9.31 60.03 8.75 59.63 8.44 59.58 8.47 59.54 8.88 59.2 9.26 59.68 9.29 59.71 9.31 59.72 9.31 59.65 9.35 58.82 8.68 58.74 8.24 59.1 8.22 59.01 8.07 58.55 8.73 58.56 8.75 58.56 8.78 58.54 8.74 58.5 8.23 57.96 7.8 58.45 7.71 58.57 7.48 58.84 6.91 58.73 6.86 58.73 7.04 55.84 9.58 56.86 9.93 55.46 9.95 55.39 9.98 55.41 9.99 55.44 10.09 55.78 10.95 55.83 11.11 55.16 11.12 55.12 11.11 55.09 11.08 55.12 10.34 55.86 8.68 53.56 10.95 51.69 12.88 50.1 14.62 50.98 15.27 51.51 15.3 51.74 15.17 51.82 15.08 51.84 15.05 51.85 15.04 51.88 15.09 51.9 15.27 51.97 15.53 51.95 15.66 51.78 16.08 52.07 15.72 52.44 15.55 52.54 15.51 52.57 15.53 52.59 15.56 52.6 15.94 52.67 16.25 52.28 16.27 52.06L16.33 52.1 16.33 53.74C16.33 56.08 19.03 56.4 21.99 58.38 24.95 56.4 27.65 56.07 27.65 53.74L27.65 52.1 27.71 52.06C27.73 52.28 28.04 52.67 28.42 52.6 28.46 52.59 28.47 52.57 28.43 52.54 28.26 52.44 27.91 52.07 28.32 51.78 28.44 51.95 28.7 51.97 28.89 51.9 28.94 51.88 28.93 51.85 28.9 51.84 28.81 51.81 28.67 51.74 28.71 51.51 29.37 50.99 31.1 50.1 33.03 51.69 35.29 53.56 33.63 55.86 32.9 55.12 32.87 55.09 32.86 55.12 32.87 55.16 33.03 55.84 33.89 55.79 33.99 55.44 34 55.41 34.03 55.39 34.05 55.46 34.4 56.86 36.95 55.84 37.12 58.73 37.07 58.74 36.5 58.84 36.27 58.57 36.17 58.45 35.75 57.96 35.24 58.5 35.21 58.53 35.24 58.56 35.25 58.56 35.91 58.54 35.77 59.01 35.74 59.1 35.3 58.74 34.63 58.81 34.67 59.65 34.67 59.72 34.7 59.71 34.72 59.68 35.1 59.2 35.51 59.55 35.54 59.58 35.23 59.63 34.67 60.03 35.19 60.69 35.21 60.72 35.24 60.76 35.25 60.7 35.32 59.92 36.01 60.18 36.15 60.25 36.25 60.3 36.73 60.44 37.06 60.05 37.19 60.64 37.93 60.57 38 60.57 38.05 60.57 38.06 60.53 38.01 60.5 37.69 60.29 37.4 59.88 37.87 59.73 37.87 59.73 38.5 60.3 39.01 59.68 39.05 59.62 39.03 59.61 39 59.62 38.94 59.64 38.22 59.73 38.27 59 38.3 58.5 38.67 56.79 37.99 56.36 37.95 56.33 37.92 56.31 37.97 56.29 38.66 56.14 38.75 55.66 38.52 55.11 38.49 55.04 38.45 55.05 38.45 55.11 38.4 56.22 36.63 55.69 36.57 54.14 37.52 54.38 39.15 54.05 39.15 52.51 39.15 50.99 37.2 50.17 37.2 49.07 37.2 48.88 37.2 48.12 38.1 48.12 38.84 48.12 39.38 48.67 39.53 49.26 39.54 49.29 39.57 49.3 39.59 49.26 39.7 49.12 39.68 48.54 39.41 48.24 39.38 48.21 39.41 48.16 39.47 48.19 39.55 48.24 39.81 48.32 40.09 48.32 40.69 48.32 41.02 47.99 41.02 47.44 41.02 47.09 40.9 46.92 40.95 46.81 40.97 46.76 40.91 46.72 40.88 46.79 40.79 46.96 40.64 47.41 40.02 47.41 40.01 47.41 38.75 47.41 38.53 47.41 36.87 47.41 36.72 48.75 36.72 49.08 36.72 50.44 38.45 51.03 38.45 52.41 38.45 52.73 38.29 53.28 37.39 53.28 37.02 53.28 36.64 53.18 36.4 53.07 36.4 53.07 36 50.65 34.83 49.81 34.83 49.81 33.46 50.48 32.1 49.74 31.06 49.18 30.57 48.8 29.66 49.43 28.75 50.06 27.95 50.74 27.86 50.72L27.64 50.68 27.64 45.24C28.06 45.2 28.09 45.57 28.07 45.67 28.05 45.8 27.91 45.9 28.2 46.33 28.22 46.36 28.26 46.35 28.26 46.31 28.27 46.2 28.33 46.02 28.47 46.02 28.61 46.02 29.26 46.51 29.81 47.06 29.81 47.06 30.13 46.1 30.89 45.81 30.46 45.74 28.59 45.29 28.59 44.48 28.59 44.21 28.28 44.14 28.08 44.16 28.07 44.14 27.77 43.41 27.2 43.79 27.17 43.81 27.18 43.85 27.21 43.86 27.46 43.92 27.57 44.18 27.58 44.46 27.04 44.29 24.72 43.64 21.98 43.64 20.65 43.64 19.42 43.79 18.44 43.97L18.44 45.86 17.7 45.86 17.7 44.1 17.7 44.1M12.64 63.42C12.44 63.34 12.3 63.21 12.3 62.94L12.3 61.77C11.96 61.65 11.05 61.3 9.22 61.3 7.7 61.3 7.22 61.64 7.2 61.76L6.8 63.99C6.8 63.99 7.42 63.43 9.62 63.57 12.28 63.74 15.03 65.31 15.03 63.64L15.03 62.66C12.94 62.66 12.64 63.32 12.64 63.42ZM28.98 62.66 28.98 63.64C28.98 65.31 31.73 63.74 34.39 63.57 36.59 63.43 37.21 63.99 37.21 63.99L36.81 61.76C36.79 61.64 36.31 61.3 34.79 61.3 32.96 61.3 32.04 61.65 31.71 61.77L31.71 62.94C31.71 63.21 31.58 63.34 31.37 63.42 31.36 63.32 31.06 62.66 28.98 62.66ZM22 61.65C26.28 61.65 30.62 61.87 31.19 62.52 31.24 62.57 31.25 62.52 31.25 62.48L31.25 60.21C31.25 59.55 26.77 59.16 22 59.16 17.23 59.16 12.75 59.54 12.75 60.21L12.75 62.48C12.75 62.52 12.77 62.57 12.81 62.52 13.38 61.87 17.72 61.65 22 61.65ZM18.19 50.96 17.76 50.85 17.72 50.9 17.22 50.68C17.22 50.68 17.59 50.68 17.67 50.68 17.71 50.68 17.71 50.65 17.69 50.63 17.49 50.43 17.31 50.25 17.31 50.25 17.31 50.25 17.51 50.33 17.81 50.43 17.84 50.44 17.86 50.42 17.84 50.4 17.7 50.19 17.51 49.92 17.51 49.92 17.51 49.92 17.91 50.19 18 50.25 18.03 50.27 18.05 50.25 18.04 50.22 17.93 49.95 17.81 49.65 17.81 49.65L18.25 50.07C18.27 50.09 18.29 50.08 18.29 50.05 18.25 49.85 18.17 49.48 18.17 49.48L18.5 49.96C18.52 49.99 18.54 49.98 18.54 49.95 18.54 49.86 18.55 49.43 18.55 49.43 18.55 49.43 18.69 49.74 18.76 49.91 18.77 49.94 18.8 49.94 18.82 49.9 18.84 49.85 18.99 49.5 18.99 49.5L19.01 50.04 18.94 50.05 18.85 50.7C19.5 50.55 20.3 49.44 20.92 49.44 21.65 49.44 21.92 50.3 23.28 49.86 23.62 50.37 23.74 50.81 23.87 51.42 24.39 51.91 25.13 51.75 25.13 51.23 25.13 50.53 24.36 50.39 24.36 49.66 24.36 49.33 24.59 48.86 25.22 48.86 25.55 48.86 26.04 49 26.32 49 26.65 49 26.72 48.76 26.76 48.66 26.79 48.59 26.88 48.61 26.87 48.67 26.86 48.74 26.91 48.83 26.91 48.99 26.91 49.45 26.23 49.51 26.15 49.46 26.12 49.44 26.09 49.47 26.12 49.49 26.22 49.57 26.2 49.85 26.08 50.02 26.07 50.04 26.05 50.04 26.04 50.02 25.97 49.69 25.58 49.28 25.23 49.28 25.1 49.28 24.85 49.35 24.85 49.65 24.85 50.07 25.69 50.45 25.69 51.31 25.69 52.21 24.8 52.42 23.9 52.2 23.93 53.05 25.2 53.56 25.23 52.95 25.23 52.91 25.25 52.93 25.27 52.95 25.46 53.21 25.37 53.41 25.13 53.51 25.35 53.61 25.39 54.06 25.46 54.32 25.56 54.72 25.98 54.5 26 54.49 26.02 54.48 26.03 54.49 26.02 54.51 25.86 54.93 25.43 54.77 25.43 54.77 25.21 54.93 25.48 55.07 25.68 55.13 25.71 55.14 25.71 55.16 25.68 55.17 25.53 55.22 25.21 55.32 25.06 55.06 24.95 55.34 24.71 55.33 24.62 55.33 24.46 55.33 24.35 55.5 24.39 55.72 24.39 55.74 24.38 55.75 24.36 55.73 23.97 55.47 24.19 55.17 24.35 55.09 24.32 55.07 24.05 54.96 23.94 55.28 23.93 55.3 23.92 55.31 23.91 55.28 23.74 54.83 24.11 54.69 24.38 54.81 24.36 54.75 24.22 54.52 23.87 54.6 23.85 54.6 23.84 54.6 23.85 54.58 23.91 54.44 24.08 54.24 24.4 54.44 24.56 54.54 24.85 54.39 24.87 54.38 24.3 53.25 23.2 54.2 22.95 53.31 22.95 53.29 22.92 53.28 22.91 53.32 22.85 53.51 22.37 53.52 22.28 53.15 22.27 53.12 22.28 53.12 22.3 53.14 22.37 53.21 22.52 53.28 22.72 52.99 22.85 52.8 22.87 52.55 22.87 52.37 22.87 51.68 22.18 50.53 21.11 50.53 20.43 50.53 19.7 50.79 19.16 51.19L19.66 51.31C19.61 51.82 19.12 52.12 18.67 51.99L18.75 51.41C18.67 51.43 18.47 51.5 18.37 51.65 18.36 51.66 18.35 51.66 18.34 51.65 18.25 51.32 18.52 51.15 18.61 51.11 18.62 51.1 18.62 51.1 18.6 51.1 18.36 51.09 18.22 51.27 18.18 51.33 18.17 51.34 18.16 51.34 18.16 51.33 18.11 51.25 18.07 51.08 18.19 50.96ZM19.68 54.89C19.49 55.13 19.32 54.9 19.06 54.9 18.82 54.9 18.78 55.1 18.78 55.18 18.78 55.19 18.77 55.2 18.76 55.18 18.49 54.81 18.79 54.61 18.97 54.58 18.94 54.55 18.68 54.38 18.51 54.62 18.5 54.64 18.48 54.63 18.48 54.61 18.47 54.15 18.83 54.12 19.07 54.32 19.11 54.15 19 54.03 18.81 54.02 18.79 54.02 18.78 54 18.79 53.99 18.87 53.9 18.95 53.86 19.03 53.86 19.28 53.86 19.32 54.18 19.48 54.18 19.73 54.18 20.08 53.84 20.12 53.81 20.11 53.79 19.87 53.15 19.92 52.76 19.92 52.74 19.91 52.74 19.9 52.75 19.78 52.82 19.47 52.82 19.47 52.44 19.47 52.41 19.48 52.41 19.5 52.43 19.63 52.62 19.85 52.41 19.96 52.28 20.08 52.15 20.71 51.24 21.54 51.24 21.72 51.24 21.96 51.34 22.15 51.47 21.86 51.82 22.15 52.16 22.36 52.12 22.39 52.12 22.39 52.14 22.37 52.15 21.26 52.57 20.77 52.73 20.77 53.66 20.77 54.14 20.94 54.41 21.22 54.35 21.24 54.34 21.25 54.35 21.23 54.37 21.13 54.49 21.01 54.53 20.91 54.53 20.68 54.53 20.64 54.4 20.52 54.4 20.39 54.4 19.98 54.64 19.98 54.85 19.98 54.93 20.03 55.03 20.17 55.13 20.18 55.14 20.17 55.14 20.17 55.15 20.08 55.18 19.76 55.2 19.68 54.89ZM22.6 45.88C22.25 45.86 22.03 45.94 22.04 46.05 22.21 46.23 22.43 46.21 22.6 45.88ZM21.32 46.74C21.56 46.68 21.83 46.71 21.86 46.72 21.9 46.73 21.9 46.79 21.85 46.8 21.34 46.87 21.32 47.1 20.99 47.1 20.78 47.1 20.54 46.88 20.63 46.57 20.64 46.53 20.67 46.53 20.68 46.57 20.72 46.69 20.92 46.84 21.32 46.74ZM14.7 58.04C15.04 58.47 15.36 58.07 15.8 58.07 16.02 58.07 16.28 58.14 16.33 58.58 16.33 58.6 16.35 58.61 16.37 58.58 16.85 57.92 16.3 57.55 15.99 57.5 16.06 57.44 16.53 57.15 16.83 57.58 16.85 57.6 16.88 57.6 16.88 57.56 16.88 56.73 16.25 56.67 15.8 57.03 15.71 56.7 15.96 56.49 16.28 56.49 16.32 56.49 16.33 56.46 16.31 56.44 15.75 55.84 15.33 56.59 15.24 56.71 15.02 57.01 14.22 56.45 13.9 56.12 13.9 56.12 14.61 55.38 14.61 54.7 14.61 54.66 14.61 54.6 14.61 54.58 14.61 54.56 14.62 54.55 14.64 54.56 14.71 54.6 14.81 54.63 14.9 54.63 15.06 54.63 15.37 54.58 15.37 54.01 15.37 53.97 15.35 53.97 15.33 53.99 15.25 54.11 15.15 54.14 15.08 54.14 14.51 54.14 13.32 52.24 11.92 52.24 11.55 52.24 10.86 52.5 10.51 52.88 10.68 52.98 10.71 53.19 10.69 53.34 10.66 53.58 10.47 53.7 10.28 53.76 10.25 53.77 10.24 53.79 10.28 53.81 10.99 54.08 12.28 54.57 12.57 54.82 12.92 55.12 12.85 55.69 12.65 56.47 12.46 57.22 12.04 57.12 11.89 57.09 11.87 57.09 11.86 57.1 11.87 57.12 12.05 57.35 12.28 57.43 12.47 57.43 12.84 57.43 12.98 57.2 13.17 57.2 13.49 57.2 14.16 57.66 14.16 58.01 14.16 58.21 14.01 58.38 13.81 58.51 13.8 58.52 13.8 58.53 13.82 58.54 13.95 58.55 14.58 58.6 14.7 58.04ZM30.2 58.53C30.22 58.53 30.22 58.51 30.21 58.5 30.01 58.37 29.86 58.19 29.86 58 29.86 57.65 30.53 57.19 30.85 57.19 31.04 57.19 31.18 57.42 31.55 57.42 31.74 57.42 31.96 57.34 32.15 57.11 32.16 57.09 32.16 57.08 32.13 57.08 31.98 57.1 31.56 57.21 31.37 56.46 31.17 55.68 31.1 55.11 31.45 54.81 31.74 54.56 33.03 54.07 33.74 53.8 33.78 53.78 33.77 53.76 33.74 53.75 33.54 53.7 33.35 53.58 33.33 53.33 33.31 53.18 33.34 52.97 33.51 52.87 33.16 52.49 32.47 52.23 32.1 52.23 30.7 52.23 29.51 54.13 28.94 54.13 28.87 54.13 28.78 54.1 28.69 53.98 28.67 53.95 28.65 53.95 28.65 54 28.65 54.57 28.95 54.62 29.12 54.62 29.21 54.62 29.31 54.59 29.38 54.55 29.4 54.54 29.41 54.55 29.41 54.57 29.41 54.59 29.41 54.65 29.41 54.69 29.41 55.37 30.12 56.11 30.12 56.11 29.8 56.44 29 57 28.78 56.7 28.68 56.58 28.27 55.83 27.71 56.43 27.69 56.45 27.7 56.48 27.74 56.48 28.05 56.48 28.3 56.69 28.22 57.02 27.77 56.66 27.14 56.72 27.14 57.55 27.14 57.58 27.17 57.59 27.19 57.57 27.49 57.14 27.96 57.43 28.03 57.49 27.71 57.54 27.16 57.91 27.65 58.57 27.67 58.6 27.69 58.59 27.69 58.57 27.74 58.14 28 58.06 28.22 58.06 28.66 58.06 28.99 58.47 29.32 58.03 29.42 58.6 30.05 58.55 30.2 58.53ZM18.85 47.56C18.81 47.62 18.66 47.56 18.6 47.53 18.59 47.52 18.58 47.53 18.59 47.54 18.63 47.62 18.77 47.86 18.98 47.86 19.08 47.86 19.21 47.8 19.25 47.74 19.25 47.74 20.08 48.01 20.48 48.12 20.32 48.33 20.22 48.59 20.2 48.86 19.87 48.66 18.55 47.95 18.55 47.95L18.14 48.51C18.07 48.6 17.75 48.36 17.81 48.27L18.12 47.84C18.02 47.73 17.77 47.8 17.7 47.82 17.69 47.82 17.68 47.82 17.69 47.8 17.73 47.72 17.88 47.46 18.27 47.57 18.27 47.33 17.92 47.41 17.83 47.43 17.82 47.43 17.82 47.43 17.83 47.42 17.93 47.32 18.21 47.09 18.53 47.28L18.67 47.09 18.39 46.79 18.57 46.55 18.77 46.82 20.29 44.74C20.33 44.69 20.63 44.6 20.74 44.58 20.75 44.7 20.76 45.01 20.73 45.06L19.23 47.16 19.55 47.26 19.38 47.5 19.01 47.33 18.85 47.56ZM24.18 47.22C24.18 47.41 24.3 47.69 24.55 47.61 24.56 47.6 24.57 47.61 24.57 47.62 24.53 47.83 24.15 48.03 23.98 47.78 23.83 48.11 23.86 48.41 24.19 48.59 24.21 48.6 24.21 48.62 24.19 48.64 23.99 48.78 23.68 48.75 23.54 48.47 23.27 48.68 23.31 49.11 23.47 49.26 23.47 49.26 22.71 49.71 22.03 49.39 21.58 49.17 21.21 48.89 20.62 48.94 20.7 48.12 21.11 47.9 21.87 47.78 22.47 47.68 22.55 47.4 22.46 47.19 22.25 47.14 21.88 47.32 21.88 47.32 21.81 47.21 21.91 47.09 21.91 47.09 21.87 47.04 21.85 46.89 21.85 46.89 22.27 46.89 22.35 46.8 22.35 46.8 22.43 46.36 21.98 46.31 21.64 46.55 21.48 46.41 21.51 46.22 21.51 46.22 21.46 46.2 21.43 46.12 21.43 46.09 21.43 45.99 21.93 45.7 22.06 45.67 22.09 45.52 22.27 45.32 22.81 45.37 22.87 45.23 22.77 44.71 22.71 44.58 22.69 44.54 22.72 44.51 22.77 44.54 22.96 44.66 23.14 45.09 23.27 45.1 23.27 45.1 23.87 44.79 23.9 44.8 23.93 44.82 24.01 45.48 24.01 45.48 24.09 45.58 24.55 45.48 24.75 45.57 24.8 45.59 24.8 45.63 24.75 45.64 24.6 45.67 24.12 45.87 24.04 46.01 24.31 46.44 24.18 47.05 24.18 47.22Z" fill="#FFFFFF"/><path d="M63.19 46.04C62.96 46.07 62.71 46.09 62.45 46.09 62.29 46.09 62.15 46.09 62.01 46.08 61.89 46.08 61.76 46.07 61.64 46.07 61.52 46.06 61.41 46.04 61.3 46.03 61.18 46.02 61.07 45.99 60.94 45.96L60.94 45.7C61.5 45.56 61.78 45.22 61.75 44.66L61.41 38.42 61.38 38.42 58.93 46.04 58.39 46.11 55.92 38.43 55.91 38.44 55.48 45.32 56.37 45.55 56.37 45.85C56.22 45.89 56.08 45.93 55.97 45.96 55.85 45.99 55.72 46.02 55.61 46.03 55.49 46.06 55.36 46.07 55.23 46.07 55.11 46.08 54.96 46.08 54.79 46.08 54.64 46.08 54.46 46.07 54.27 46.04 54.09 46.01 53.9 45.99 53.73 45.94L53.73 45.69C53.99 45.61 54.18 45.51 54.31 45.39 54.45 45.25 54.53 45.09 54.54 44.88L55.14 37.86 54.34 37.63 54.34 37.23C54.49 37.22 54.66 37.19 54.82 37.18 54.98 37.17 55.15 37.17 55.31 37.15 55.47 37.15 55.64 37.14 55.79 37.14 55.94 37.14 56.08 37.14 56.2 37.14L56.7 37.14 58.86 43.8 58.87 43.8 60.96 37.14 61.55 37.14C61.8 37.14 62.07 37.14 62.36 37.15 62.65 37.16 62.94 37.19 63.21 37.23L63.21 37.63 62.36 37.84 62.96 45.39 63.76 45.54 63.76 45.84C63.61 45.94 63.42 46 63.19 46.04Z" fill="#1D1D1B"/><path d="M67.02 45.95C66.9 45.98 66.79 46.01 66.65 46.02 66.53 46.03 66.39 46.05 66.25 46.06 66.1 46.06 65.95 46.07 65.77 46.07 65.62 46.07 65.44 46.06 65.26 46.04 65.07 46.03 64.89 46 64.74 45.94L64.74 45.71C64.84 45.68 64.92 45.64 65.01 45.59 65.09 45.54 65.18 45.48 65.24 45.41 65.31 45.36 65.36 45.29 65.41 45.2 65.45 45.13 65.46 45.05 65.46 44.97L65.46 40.33 64.58 39.96 64.58 39.67C64.9 39.57 65.2 39.52 65.49 39.48 65.78 39.42 66.03 39.41 66.22 39.41L66.66 39.41 66.59 40.15 66.59 45.37 67.36 45.58 67.36 45.84C67.24 45.89 67.13 45.93 67.02 45.95ZM66.75 37.64C66.71 37.74 66.65 37.83 66.59 37.9 66.52 37.98 66.44 38.04 66.34 38.08 66.24 38.13 66.15 38.15 66.04 38.15 65.94 38.15 65.85 38.14 65.75 38.1 65.67 38.06 65.59 38 65.52 37.93 65.46 37.86 65.41 37.78 65.37 37.68 65.33 37.58 65.32 37.47 65.32 37.36 65.32 37.25 65.33 37.15 65.37 37.06 65.4 36.96 65.45 36.88 65.52 36.8 65.59 36.72 65.67 36.66 65.77 36.62 65.87 36.58 65.98 36.55 66.1 36.55 66.2 36.55 66.29 36.56 66.38 36.6 66.46 36.63 66.54 36.68 66.61 36.75 66.68 36.8 66.72 36.89 66.76 36.98 66.8 37.06 66.82 37.17 66.82 37.28 66.81 37.42 66.8 37.53 66.75 37.64Z" fill="#1D1D1B"/><path d="M73.41 46.08C73.27 46.08 73.12 46.07 72.96 46.05 72.81 46.04 72.66 46.01 72.52 45.95L72.52 45.72C72.7 45.64 72.82 45.54 72.89 45.39 72.97 45.25 73.01 45.06 73.01 44.81L73.01 42.19C73.01 41.86 72.97 41.57 72.91 41.34 72.84 41.09 72.75 40.9 72.62 40.76 72.5 40.61 72.36 40.5 72.19 40.43 72.01 40.36 71.83 40.33 71.63 40.33 71.35 40.33 71.08 40.37 70.83 40.45 70.57 40.53 70.36 40.64 70.21 40.75L70.21 45.37 70.98 45.58 70.98 45.84C70.86 45.88 70.75 45.92 70.64 45.95 70.52 45.98 70.39 46.01 70.27 46.02 70.15 46.03 70.01 46.05 69.86 46.06 69.72 46.06 69.57 46.07 69.39 46.07 69.23 46.07 69.05 46.06 68.87 46.04 68.69 46.03 68.51 46 68.36 45.94L68.36 45.71C68.46 45.68 68.54 45.64 68.62 45.59 68.72 45.54 68.79 45.48 68.85 45.41 68.92 45.36 68.97 45.29 69.03 45.2 69.07 45.13 69.08 45.05 69.08 44.97L69.08 40.33 68.19 39.96 68.19 39.66C68.51 39.56 68.81 39.51 69.1 39.47 69.39 39.43 69.64 39.41 69.84 39.41L70.17 39.41 70.17 40.15C70.4 39.92 70.71 39.72 71.06 39.59 71.42 39.45 71.8 39.38 72.2 39.38 72.49 39.38 72.75 39.42 72.98 39.52 73.21 39.62 73.42 39.75 73.58 39.93 73.75 40.11 73.88 40.33 73.98 40.59 74.06 40.87 74.12 41.18 74.12 41.52L74.12 45.37 74.83 45.58 74.83 45.84C74.47 46 73.98 46.08 73.41 46.08Z" fill="#1D1D1B"/><path d="M78.16 45.95C78.04 45.98 77.93 46.01 77.79 46.02 77.67 46.03 77.53 46.05 77.39 46.06 77.24 46.06 77.09 46.07 76.91 46.07 76.76 46.07 76.58 46.06 76.4 46.04 76.21 46.03 76.03 46 75.88 45.94L75.88 45.71C75.98 45.68 76.06 45.64 76.15 45.59 76.23 45.54 76.32 45.48 76.38 45.41 76.45 45.36 76.5 45.29 76.55 45.2 76.59 45.13 76.6 45.05 76.6 44.97L76.6 40.33 75.72 39.96 75.72 39.67C76.04 39.57 76.34 39.52 76.63 39.48 76.92 39.42 77.17 39.41 77.36 39.41L77.8 39.41 77.73 40.15 77.73 45.37 78.5 45.58 78.5 45.84C78.38 45.89 78.27 45.93 78.16 45.95ZM77.9 37.64C77.86 37.74 77.8 37.83 77.74 37.9 77.67 37.98 77.59 38.04 77.49 38.08 77.39 38.13 77.3 38.15 77.19 38.15 77.09 38.15 77 38.14 76.9 38.1 76.82 38.06 76.73 38 76.67 37.93 76.61 37.86 76.56 37.78 76.52 37.68 76.48 37.58 76.46 37.47 76.46 37.36 76.46 37.25 76.47 37.15 76.52 37.06 76.55 36.96 76.6 36.88 76.67 36.8 76.74 36.72 76.82 36.66 76.92 36.62 77.02 36.58 77.13 36.55 77.25 36.55 77.35 36.55 77.44 36.56 77.53 36.6 77.61 36.63 77.69 36.68 77.76 36.75 77.83 36.8 77.87 36.89 77.91 36.98 77.95 37.06 77.97 37.17 77.97 37.28 77.96 37.42 77.94 37.53 77.9 37.64Z" fill="#1D1D1B"/><path d="M83.46 44.91C83.34 45.14 83.16 45.36 82.94 45.54 82.72 45.73 82.45 45.88 82.13 45.99 81.83 46.1 81.47 46.15 81.09 46.15 80.49 46.15 80.05 46.05 79.77 45.86 79.48 45.68 79.34 45.39 79.34 45.02 79.34 44.92 79.35 44.83 79.37 44.72 79.4 44.62 79.42 44.54 79.47 44.46 79.77 44.75 80.09 44.97 80.39 45.11 80.71 45.26 81.04 45.33 81.41 45.33 81.79 45.33 82.08 45.25 82.29 45.08 82.48 44.92 82.58 44.72 82.58 44.48 82.58 44.36 82.57 44.25 82.53 44.15 82.49 44.05 82.42 43.96 82.34 43.86 82.24 43.76 82.12 43.68 81.97 43.58 81.83 43.5 81.64 43.4 81.41 43.3L80.72 43.01C80.32 42.85 80.02 42.61 79.8 42.32 79.59 42.03 79.48 41.7 79.48 41.3 79.48 41.02 79.53 40.76 79.65 40.53 79.77 40.28 79.94 40.06 80.14 39.89 80.35 39.71 80.59 39.56 80.9 39.45 81.19 39.34 81.52 39.28 81.88 39.28 82.15 39.28 82.39 39.31 82.58 39.35 82.77 39.38 82.94 39.45 83.06 39.51 83.18 39.58 83.28 39.68 83.34 39.77 83.39 39.88 83.42 40 83.42 40.13 83.42 40.24 83.42 40.34 83.41 40.42 83.4 40.52 83.37 40.61 83.36 40.71 83.14 40.56 82.89 40.43 82.6 40.34 82.33 40.24 82.05 40.19 81.79 40.19 81.57 40.19 81.38 40.22 81.21 40.26 81.05 40.3 80.92 40.37 80.81 40.44 80.7 40.52 80.62 40.62 80.56 40.72 80.52 40.83 80.49 40.94 80.49 41.05 80.49 41.17 80.5 41.28 80.53 41.38 80.57 41.49 80.63 41.57 80.71 41.66 80.79 41.76 80.9 41.84 81.04 41.91 81.18 41.99 81.36 42.06 81.56 42.14L82.3 42.43C82.55 42.53 82.75 42.64 82.93 42.75 83.1 42.86 83.25 42.98 83.36 43.12 83.46 43.27 83.54 43.42 83.59 43.59 83.63 43.76 83.66 43.95 83.66 44.14 83.64 44.4 83.59 44.66 83.46 44.91Z" fill="#1D1D1B"/><path d="M86.83 46.13C86.28 46.13 85.87 45.98 85.59 45.68 85.33 45.38 85.19 44.9 85.19 44.22 85.19 43.89 85.19 43.55 85.2 43.2 85.21 42.84 85.21 42.51 85.23 42.2L85.27 40.37 84.51 40.37 84.51 39.92 85.99 38.45 86.44 38.4 86.38 39.64 88.19 39.64 88.09 40.38 86.33 40.38 86.3 42.11C86.3 42.4 86.29 42.67 86.29 42.95 86.29 43.21 86.29 43.46 86.29 43.72 86.29 44 86.3 44.23 86.34 44.42 86.38 44.61 86.44 44.76 86.52 44.89 86.59 45 86.67 45.08 86.78 45.14 86.88 45.19 87 45.22 87.12 45.22 87.33 45.22 87.5 45.19 87.68 45.12 87.85 45.05 88 44.97 88.13 44.86L88.27 44.91C88.26 45.72 87.77 46.13 86.83 46.13Z" fill="#1D1D1B"/><path d="M94.18 42.77 90.13 42.77C90.13 43.15 90.18 43.5 90.28 43.8 90.39 44.1 90.54 44.35 90.72 44.56 90.9 44.77 91.12 44.93 91.37 45.04 91.62 45.15 91.88 45.2 92.17 45.2 92.33 45.2 92.5 45.19 92.68 45.16 92.86 45.13 93.02 45.09 93.19 45.04 93.37 45 93.52 44.93 93.68 44.86 93.83 44.78 93.98 44.69 94.11 44.61 94.12 44.64 94.14 44.69 94.15 44.76 94.16 44.83 94.16 44.9 94.16 44.97 94.16 45.14 94.1 45.29 93.99 45.42 93.88 45.56 93.73 45.69 93.52 45.8 93.31 45.91 93.07 45.99 92.78 46.06 92.48 46.13 92.15 46.16 91.79 46.16 91.39 46.16 91.03 46.09 90.69 45.94 90.33 45.79 90.04 45.58 89.78 45.31 89.52 45.03 89.31 44.7 89.16 44.32 89.02 43.94 88.94 43.5 88.94 43.02 88.94 42.43 89.02 41.89 89.19 41.42 89.35 40.97 89.57 40.58 89.85 40.27 90.11 39.97 90.41 39.72 90.76 39.57 91.1 39.41 91.46 39.32 91.82 39.32 92.19 39.32 92.52 39.38 92.82 39.5 93.11 39.62 93.36 39.79 93.56 40.01 93.77 40.24 93.92 40.51 94.03 40.82 94.14 41.15 94.19 41.49 94.19 41.89 94.19 42.03 94.19 42.15 94.19 42.3 94.19 42.44 94.19 42.6 94.18 42.77ZM92.99 41.17C92.92 40.92 92.82 40.72 92.7 40.55 92.58 40.39 92.44 40.26 92.26 40.18 92.09 40.1 91.9 40.06 91.71 40.06 91.52 40.06 91.34 40.12 91.15 40.23 90.96 40.33 90.79 40.48 90.66 40.66 90.51 40.84 90.4 41.06 90.3 41.29 90.2 41.54 90.16 41.78 90.16 42.06L93.1 42.06C93.09 41.71 93.05 41.42 92.99 41.17Z" fill="#1D1D1B"/><path d="M99.36 40.35C99.32 40.5 99.26 40.64 99.19 40.76 99.07 40.66 98.93 40.58 98.78 40.53 98.63 40.48 98.49 40.45 98.34 40.45 97.91 40.45 97.52 40.64 97.13 41.01L97.13 45.38 98.08 45.59 98.08 45.85C97.97 45.89 97.85 45.93 97.72 45.96 97.61 45.99 97.49 46.02 97.35 46.03 97.21 46.04 97.06 46.06 96.91 46.07 96.74 46.07 96.57 46.08 96.37 46.08 96.16 46.08 95.97 46.07 95.79 46.05 95.6 46.04 95.42 46.01 95.27 45.95L95.27 45.72C95.37 45.69 95.45 45.65 95.53 45.6 95.63 45.55 95.7 45.49 95.76 45.42 95.83 45.37 95.88 45.3 95.94 45.21 95.98 45.14 95.99 45.06 95.99 44.98L95.99 40.34 95.1 39.97 95.1 39.67C95.42 39.57 95.72 39.52 96.01 39.48 96.3 39.44 96.55 39.42 96.75 39.42L97.08 39.42 97.08 40.38 97.09 40.38 97.47 39.95C97.65 39.74 97.85 39.59 98.05 39.5 98.24 39.4 98.45 39.35 98.68 39.35 99.16 39.35 99.39 39.54 99.39 39.94 99.41 40.06 99.4 40.2 99.36 40.35Z" fill="#1D1D1B"/><path d="M102.42 45.95C102.3 45.98 102.19 46.01 102.05 46.02 101.93 46.03 101.79 46.05 101.65 46.06 101.5 46.06 101.35 46.07 101.17 46.07 101.02 46.07 100.84 46.06 100.66 46.04 100.47 46.03 100.29 46 100.14 45.94L100.14 45.71C100.24 45.68 100.32 45.64 100.41 45.59 100.49 45.54 100.58 45.48 100.64 45.41 100.71 45.36 100.76 45.29 100.81 45.2 100.85 45.13 100.86 45.05 100.86 44.97L100.86 40.33 99.98 39.96 99.98 39.67C100.3 39.57 100.6 39.52 100.89 39.48 101.18 39.42 101.43 39.41 101.62 39.41L102.06 39.41 101.99 40.15 101.99 45.37 102.76 45.58 102.76 45.84C102.64 45.89 102.53 45.93 102.42 45.95ZM102.16 37.64C102.12 37.74 102.06 37.83 102 37.9 101.93 37.98 101.85 38.04 101.75 38.08 101.65 38.13 101.56 38.15 101.45 38.15 101.35 38.15 101.26 38.14 101.16 38.1 101.08 38.06 100.99 38 100.93 37.93 100.87 37.86 100.82 37.78 100.78 37.68 100.74 37.58 100.72 37.47 100.72 37.36 100.72 37.25 100.73 37.15 100.78 37.06 100.81 36.96 100.86 36.88 100.93 36.8 101 36.72 101.08 36.66 101.18 36.62 101.28 36.58 101.39 36.55 101.51 36.55 101.61 36.55 101.7 36.56 101.79 36.6 101.87 36.63 101.95 36.68 102.02 36.75 102.09 36.8 102.13 36.89 102.17 36.98 102.21 37.06 102.23 37.17 102.23 37.28 102.21 37.42 102.2 37.53 102.16 37.64Z" fill="#1D1D1B"/><path d="M108.91 42.77 104.86 42.77C104.86 43.15 104.91 43.5 105.01 43.8 105.12 44.1 105.27 44.35 105.45 44.56 105.63 44.77 105.85 44.93 106.1 45.04 106.35 45.15 106.61 45.2 106.9 45.2 107.07 45.2 107.23 45.19 107.41 45.16 107.59 45.13 107.75 45.09 107.92 45.04 108.1 45 108.25 44.93 108.41 44.86 108.56 44.78 108.71 44.69 108.84 44.61 108.85 44.64 108.87 44.69 108.88 44.76 108.89 44.83 108.89 44.9 108.89 44.97 108.89 45.14 108.83 45.29 108.72 45.42 108.61 45.56 108.46 45.69 108.25 45.8 108.04 45.91 107.8 45.99 107.51 46.06 107.21 46.13 106.88 46.16 106.52 46.16 106.12 46.16 105.76 46.09 105.42 45.94 105.06 45.79 104.77 45.58 104.51 45.31 104.25 45.03 104.04 44.7 103.89 44.32 103.75 43.94 103.67 43.5 103.67 43.02 103.67 42.43 103.75 41.89 103.92 41.42 104.08 40.97 104.3 40.58 104.58 40.27 104.84 39.97 105.14 39.72 105.49 39.57 105.83 39.41 106.19 39.32 106.55 39.32 106.92 39.32 107.25 39.38 107.55 39.5 107.84 39.62 108.09 39.79 108.29 40.01 108.5 40.24 108.65 40.51 108.76 40.82 108.87 41.15 108.92 41.49 108.92 41.89 108.92 42.03 108.92 42.15 108.92 42.3 108.93 42.44 108.93 42.6 108.91 42.77ZM107.72 41.17C107.65 40.92 107.55 40.72 107.43 40.55 107.31 40.39 107.17 40.26 106.99 40.18 106.82 40.1 106.63 40.06 106.44 40.06 106.25 40.06 106.07 40.12 105.88 40.23 105.69 40.33 105.52 40.48 105.39 40.66 105.24 40.84 105.13 41.06 105.03 41.29 104.93 41.54 104.89 41.78 104.89 42.06L107.83 42.06C107.83 41.71 107.79 41.42 107.72 41.17Z" fill="#1D1D1B"/><path d="M117.89 40.06 115.46 46.12 114.98 46.15 112.66 40.15 112.1 39.75 112.1 39.42 114.71 39.42 114.71 39.75 113.93 40.08 115.43 44.43 115.44 44.43 116.96 40.12 116.16 39.75 116.16 39.42 118.29 39.42 118.29 39.75 117.89 40.06Z" fill="#1D1D1B"/><path d="M123.45 45.85C123.28 45.99 123.11 46.1 122.93 46.18 122.79 46.1 122.68 46 122.57 45.89 122.47 45.77 122.38 45.64 122.3 45.51 122.2 45.61 122.09 45.69 121.96 45.77 121.81 45.85 121.67 45.92 121.51 45.98 121.35 46.05 121.18 46.09 120.99 46.12 120.81 46.16 120.63 46.17 120.45 46.17 120.19 46.17 119.96 46.13 119.75 46.06 119.53 45.98 119.35 45.88 119.2 45.74 119.03 45.6 118.93 45.44 118.83 45.25 118.75 45.07 118.71 44.87 118.71 44.65 118.71 44.35 118.79 44.06 118.96 43.8 119.11 43.53 119.34 43.29 119.66 43.09 119.96 42.88 120.33 42.72 120.77 42.6 121.21 42.49 121.72 42.42 122.28 42.42L122.28 42.05C122.28 41.68 122.25 41.38 122.21 41.14 122.16 40.91 122.09 40.73 121.99 40.59 121.89 40.47 121.77 40.37 121.61 40.31 121.46 40.27 121.28 40.24 121.06 40.24 120.68 40.24 120.32 40.32 119.96 40.47 119.62 40.62 119.29 40.84 119 41.13 118.97 41.01 118.96 40.87 118.96 40.72 118.96 40.5 119 40.31 119.08 40.13 119.16 39.96 119.3 39.81 119.48 39.7 119.66 39.58 119.89 39.48 120.18 39.42 120.47 39.35 120.81 39.32 121.21 39.32 121.55 39.32 121.87 39.36 122.14 39.44 122.41 39.54 122.63 39.65 122.83 39.81 123.02 39.98 123.17 40.17 123.27 40.39 123.37 40.61 123.42 40.87 123.42 41.16 123.42 41.23 123.42 41.32 123.41 41.45 123.41 41.56 123.41 41.68 123.4 41.82 123.4 41.94 123.39 42.08 123.39 42.2 123.39 42.32 123.38 42.45 123.38 42.54L123.34 44.77C123.39 44.89 123.46 45.02 123.56 45.14 123.66 45.26 123.77 45.37 123.89 45.47 123.77 45.6 123.63 45.72 123.45 45.85ZM122.27 43.04C121.89 43.04 121.54 43.08 121.24 43.15 120.94 43.23 120.69 43.33 120.5 43.45 120.29 43.57 120.14 43.73 120.03 43.89 119.93 44.07 119.88 44.23 119.88 44.43 119.88 44.7 119.98 44.92 120.15 45.09 120.33 45.26 120.59 45.34 120.95 45.34 121.06 45.34 121.17 45.33 121.28 45.31 121.4 45.28 121.53 45.26 121.64 45.23 121.76 45.2 121.87 45.16 121.98 45.11 122.09 45.07 122.19 45.03 122.27 44.97L122.27 43.04Z" fill="#1D1D1B"/><path d="M130.02 46.08C129.88 46.08 129.73 46.07 129.57 46.05 129.42 46.04 129.27 46.01 129.13 45.95L129.13 45.72C129.31 45.64 129.43 45.54 129.5 45.39 129.58 45.25 129.62 45.06 129.62 44.81L129.62 42.19C129.62 41.86 129.58 41.57 129.52 41.34 129.45 41.09 129.36 40.9 129.23 40.76 129.11 40.61 128.97 40.5 128.8 40.43 128.62 40.36 128.44 40.33 128.24 40.33 127.96 40.33 127.69 40.37 127.44 40.45 127.18 40.53 126.97 40.64 126.82 40.75L126.82 45.37 127.59 45.58 127.59 45.84C127.47 45.88 127.36 45.92 127.25 45.95 127.13 45.98 127 46.01 126.88 46.02 126.76 46.03 126.62 46.05 126.47 46.06 126.33 46.06 126.18 46.07 126 46.07 125.83 46.07 125.66 46.06 125.48 46.04 125.3 46.03 125.12 46 124.97 45.94L124.97 45.71C125.07 45.68 125.15 45.64 125.23 45.59 125.33 45.54 125.4 45.48 125.46 45.41 125.53 45.36 125.58 45.29 125.64 45.2 125.68 45.13 125.69 45.05 125.69 44.97L125.69 40.33 124.8 39.96 124.8 39.66C125.12 39.56 125.42 39.51 125.71 39.47 126 39.43 126.25 39.41 126.45 39.41L126.78 39.41 126.78 40.15C127.01 39.92 127.32 39.72 127.67 39.59 128.03 39.45 128.41 39.38 128.81 39.38 129.1 39.38 129.36 39.42 129.59 39.52 129.82 39.62 130.03 39.75 130.2 39.93 130.36 40.11 130.5 40.33 130.6 40.59 130.68 40.87 130.74 41.18 130.74 41.52L130.74 45.37 131.45 45.58 131.45 45.84C131.07 46 130.59 46.08 130.02 46.08Z" fill="#1D1D1B"/><path d="M142.57 42.66C142.45 43.09 142.27 43.48 142.05 43.84 141.83 44.2 141.57 44.51 141.27 44.8 140.96 45.07 140.63 45.31 140.25 45.5 139.88 45.69 139.48 45.84 139.05 45.94 138.63 46.04 138.2 46.09 137.75 46.09 137.47 46.09 137.23 46.09 137.02 46.09 136.8 46.08 136.59 46.08 136.4 46.06 136.21 46.06 136.02 46.05 135.84 46.02 135.65 46.01 135.44 45.98 135.24 45.95L135.24 45.69C135.49 45.62 135.68 45.51 135.82 45.35 135.97 45.2 136.04 44.97 136.04 44.65L136.04 37.92 135.17 37.63 135.17 37.33C135.39 37.29 135.61 37.26 135.83 37.23 136.04 37.2 136.26 37.19 136.48 37.17 136.7 37.16 136.93 37.14 137.18 37.14 137.43 37.13 137.69 37.13 137.96 37.13 138.69 37.13 139.33 37.23 139.92 37.4 140.51 37.58 141.02 37.84 141.43 38.2 141.86 38.54 142.17 38.97 142.4 39.48 142.63 39.99 142.74 40.58 142.74 41.24 142.75 41.75 142.69 42.22 142.57 42.66ZM141.15 39.97C140.96 39.53 140.72 39.16 140.41 38.86 140.09 38.56 139.72 38.32 139.3 38.17 138.87 38.02 138.42 37.94 137.93 37.94 137.7 37.94 137.46 37.95 137.22 37.98L137.22 45.23C137.34 45.24 137.45 45.26 137.56 45.27 137.67 45.28 137.78 45.28 137.89 45.28 138.37 45.28 138.82 45.2 139.26 45.03 139.68 44.87 140.06 44.62 140.37 44.29 140.7 43.97 140.95 43.58 141.14 43.09 141.32 42.62 141.42 42.07 141.42 41.47 141.41 40.9 141.33 40.41 141.15 39.97Z" fill="#1D1D1B"/><path d="M149.09 42.77 145.04 42.77C145.04 43.15 145.09 43.5 145.19 43.8 145.3 44.1 145.45 44.35 145.63 44.56 145.81 44.77 146.03 44.93 146.28 45.04 146.53 45.15 146.79 45.2 147.08 45.2 147.25 45.2 147.41 45.19 147.59 45.16 147.77 45.13 147.93 45.09 148.1 45.04 148.28 45 148.43 44.93 148.59 44.86 148.74 44.78 148.89 44.69 149.02 44.61 149.03 44.64 149.05 44.69 149.06 44.76 149.07 44.83 149.07 44.9 149.07 44.97 149.07 45.14 149.02 45.29 148.9 45.42 148.79 45.56 148.64 45.69 148.43 45.8 148.22 45.91 147.98 45.99 147.69 46.06 147.39 46.13 147.06 46.16 146.7 46.16 146.3 46.16 145.94 46.09 145.6 45.94 145.24 45.79 144.95 45.58 144.69 45.31 144.43 45.03 144.22 44.7 144.07 44.32 143.93 43.94 143.85 43.5 143.85 43.02 143.85 42.43 143.93 41.89 144.1 41.42 144.26 40.97 144.48 40.58 144.76 40.27 145.02 39.97 145.32 39.72 145.67 39.57 146.01 39.41 146.37 39.32 146.73 39.32 147.1 39.32 147.43 39.38 147.73 39.5 148.02 39.62 148.27 39.79 148.47 40.01 148.68 40.24 148.83 40.51 148.94 40.82 149.05 41.15 149.1 41.49 149.1 41.89 149.1 42.03 149.1 42.15 149.1 42.3 149.1 42.44 149.1 42.6 149.09 42.77ZM147.89 41.17C147.82 40.92 147.73 40.72 147.6 40.55 147.48 40.39 147.34 40.26 147.16 40.18 147 40.1 146.8 40.06 146.61 40.06 146.42 40.06 146.24 40.12 146.05 40.23 145.86 40.33 145.69 40.48 145.56 40.66 145.41 40.84 145.3 41.06 145.2 41.29 145.1 41.54 145.06 41.78 145.06 42.06L148 42.06C148 41.71 147.96 41.42 147.89 41.17Z" fill="#1D1D1B"/><path d="M154.88 36.97C154.87 37.05 154.85 37.13 154.83 37.2 154.71 37.16 154.57 37.12 154.4 37.08 154.25 37.04 154.1 37.01 153.93 36.98 153.77 36.97 153.6 36.94 153.45 36.92 153.28 36.91 153.13 36.91 153 36.91 152.86 36.91 152.72 36.94 152.6 37.01 152.48 37.08 152.37 37.17 152.28 37.3 152.18 37.42 152.12 37.59 152.06 37.77 152.01 37.96 151.98 38.17 151.98 38.41 151.98 38.47 151.98 38.53 151.99 38.64 151.99 38.75 151.99 38.86 152 38.98 152 39.1 152 39.23 152.01 39.35 152.01 39.46 152.02 39.56 152.02 39.64L153.76 39.64 153.6 40.38 152.01 40.38 152.01 45.37 152.88 45.58 152.88 45.84C152.77 45.88 152.65 45.92 152.52 45.95 152.41 45.98 152.27 46.01 152.15 46.02 152.01 46.03 151.86 46.05 151.71 46.06 151.55 46.06 151.38 46.07 151.19 46.07 151.02 46.07 150.85 46.06 150.67 46.04 150.49 46.03 150.31 46 150.16 45.94L150.16 45.71C150.26 45.68 150.34 45.64 150.42 45.59 150.52 45.54 150.58 45.48 150.65 45.41 150.72 45.36 150.79 45.29 150.83 45.2 150.87 45.13 150.88 45.05 150.88 44.97L150.88 40.38 150.12 40.38 150.12 39.9 150.88 39.6 150.88 38.58C150.88 38.21 150.94 37.88 151.05 37.58 151.17 37.28 151.34 37 151.57 36.78 151.79 36.56 152.06 36.4 152.39 36.27 152.72 36.15 153.09 36.08 153.52 36.08 154.02 36.08 154.36 36.15 154.56 36.26 154.78 36.38 154.88 36.54 154.88 36.74 154.9 36.82 154.9 36.89 154.88 36.97Z" fill="#1D1D1B"/><path d="M159.47 42.77 155.42 42.77C155.42 43.15 155.47 43.5 155.57 43.8 155.68 44.1 155.83 44.35 156.01 44.56 156.19 44.77 156.41 44.93 156.66 45.04 156.91 45.15 157.17 45.2 157.46 45.2 157.63 45.2 157.79 45.19 157.97 45.16 158.15 45.13 158.31 45.09 158.48 45.04 158.66 45 158.81 44.93 158.97 44.86 159.12 44.78 159.27 44.69 159.4 44.61 159.41 44.64 159.43 44.69 159.44 44.76 159.45 44.83 159.45 44.9 159.45 44.97 159.45 45.14 159.4 45.29 159.28 45.42 159.17 45.56 159.02 45.69 158.81 45.8 158.6 45.91 158.36 45.99 158.07 46.06 157.77 46.13 157.44 46.16 157.08 46.16 156.68 46.16 156.32 46.09 155.98 45.94 155.62 45.79 155.33 45.58 155.07 45.31 154.81 45.03 154.6 44.7 154.45 44.32 154.31 43.94 154.23 43.5 154.23 43.02 154.23 42.43 154.31 41.89 154.48 41.42 154.64 40.97 154.86 40.58 155.14 40.27 155.4 39.97 155.7 39.72 156.05 39.57 156.39 39.41 156.75 39.32 157.11 39.32 157.48 39.32 157.81 39.38 158.11 39.5 158.4 39.62 158.65 39.79 158.85 40.01 159.06 40.24 159.21 40.51 159.32 40.82 159.43 41.15 159.48 41.49 159.48 41.89 159.48 42.03 159.48 42.15 159.48 42.3 159.48 42.44 159.48 42.6 159.47 42.77ZM158.27 41.17C158.2 40.92 158.11 40.72 157.98 40.55 157.86 40.39 157.72 40.26 157.54 40.18 157.38 40.1 157.18 40.06 156.99 40.06 156.8 40.06 156.62 40.12 156.43 40.23 156.24 40.33 156.07 40.48 155.94 40.66 155.79 40.84 155.68 41.06 155.58 41.29 155.48 41.54 155.44 41.78 155.44 42.06L158.38 42.06C158.38 41.71 158.34 41.42 158.27 41.17Z" fill="#1D1D1B"/><path d="M165.61 46.08C165.47 46.08 165.32 46.07 165.16 46.05 165.01 46.04 164.86 46.01 164.72 45.95L164.72 45.72C164.9 45.64 165.02 45.54 165.09 45.39 165.17 45.25 165.21 45.06 165.21 44.81L165.21 42.19C165.21 41.86 165.17 41.57 165.11 41.34 165.04 41.09 164.95 40.9 164.82 40.76 164.7 40.61 164.56 40.5 164.39 40.43 164.21 40.36 164.03 40.33 163.83 40.33 163.55 40.33 163.28 40.37 163.03 40.45 162.77 40.53 162.56 40.64 162.41 40.75L162.41 45.37 163.18 45.58 163.18 45.84C163.06 45.88 162.95 45.92 162.84 45.95 162.72 45.98 162.59 46.01 162.47 46.02 162.35 46.03 162.21 46.05 162.06 46.06 161.92 46.06 161.77 46.07 161.59 46.07 161.43 46.07 161.25 46.06 161.07 46.04 160.89 46.03 160.71 46 160.56 45.94L160.56 45.71C160.66 45.68 160.74 45.64 160.82 45.59 160.92 45.54 160.98 45.48 161.05 45.41 161.12 45.36 161.17 45.29 161.23 45.2 161.27 45.13 161.28 45.05 161.28 44.97L161.28 40.33 160.39 39.96 160.39 39.66C160.71 39.56 161.01 39.51 161.3 39.47 161.59 39.43 161.84 39.41 162.04 39.41L162.37 39.41 162.37 40.15C162.6 39.92 162.91 39.72 163.26 39.59 163.62 39.45 164 39.38 164.4 39.38 164.69 39.38 164.95 39.42 165.18 39.52 165.41 39.62 165.62 39.75 165.78 39.93 165.95 40.11 166.08 40.33 166.18 40.59 166.26 40.87 166.32 41.18 166.32 41.52L166.32 45.37 167.03 45.58 167.03 45.84C166.66 46 166.18 46.08 165.61 46.08Z" fill="#1D1D1B"/><path d="M172.03 44.91C171.91 45.14 171.73 45.36 171.51 45.54 171.29 45.73 171.02 45.88 170.7 45.99 170.4 46.1 170.04 46.15 169.66 46.15 169.06 46.15 168.62 46.05 168.34 45.86 168.05 45.68 167.91 45.39 167.91 45.02 167.91 44.92 167.92 44.83 167.94 44.72 167.97 44.62 167.99 44.54 168.04 44.46 168.34 44.75 168.66 44.97 168.96 45.11 169.28 45.26 169.61 45.33 169.98 45.33 170.36 45.33 170.65 45.25 170.86 45.08 171.05 44.92 171.15 44.72 171.15 44.48 171.15 44.36 171.14 44.25 171.09 44.15 171.05 44.05 170.98 43.96 170.9 43.86 170.8 43.76 170.68 43.68 170.53 43.58 170.39 43.5 170.2 43.4 169.97 43.3L169.28 43.01C168.88 42.85 168.58 42.61 168.36 42.32 168.15 42.03 168.04 41.7 168.04 41.3 168.04 41.02 168.09 40.76 168.2 40.53 168.32 40.28 168.49 40.06 168.7 39.89 168.91 39.71 169.15 39.56 169.46 39.45 169.75 39.34 170.08 39.28 170.43 39.28 170.71 39.28 170.94 39.31 171.13 39.35 171.32 39.38 171.49 39.45 171.61 39.51 171.73 39.58 171.83 39.68 171.89 39.77 171.94 39.88 171.97 40 171.97 40.13 171.97 40.24 171.97 40.34 171.96 40.42 171.95 40.52 171.92 40.61 171.91 40.71 171.69 40.56 171.44 40.43 171.15 40.34 170.87 40.24 170.6 40.19 170.34 40.19 170.12 40.19 169.93 40.22 169.76 40.26 169.59 40.3 169.47 40.37 169.36 40.44 169.25 40.52 169.17 40.62 169.11 40.72 169.07 40.83 169.04 40.94 169.04 41.05 169.04 41.17 169.05 41.28 169.08 41.38 169.12 41.49 169.18 41.57 169.26 41.66 169.34 41.76 169.45 41.84 169.59 41.91 169.73 41.99 169.91 42.06 170.11 42.14L170.85 42.43C171.1 42.53 171.3 42.64 171.48 42.75 171.64 42.86 171.8 42.98 171.91 43.12 172.01 43.27 172.09 43.42 172.14 43.59 172.18 43.76 172.21 43.95 172.21 44.14 172.21 44.4 172.15 44.66 172.03 44.91Z" fill="#1D1D1B"/><path d="M175.42 45.95C175.3 45.98 175.19 46.01 175.05 46.02 174.93 46.03 174.79 46.05 174.65 46.06 174.5 46.06 174.35 46.07 174.17 46.07 174.02 46.07 173.84 46.06 173.66 46.04 173.47 46.03 173.29 46 173.14 45.94L173.14 45.71C173.24 45.68 173.32 45.64 173.41 45.59 173.49 45.54 173.58 45.48 173.64 45.41 173.71 45.36 173.76 45.29 173.8 45.2 173.84 45.13 173.85 45.05 173.85 44.97L173.85 40.33 172.97 39.96 172.97 39.67C173.29 39.57 173.59 39.52 173.88 39.48 174.17 39.42 174.42 39.41 174.61 39.41L175.05 39.41 175 40.16 175 45.38 175.77 45.59 175.77 45.85C175.64 45.89 175.53 45.93 175.42 45.95ZM175.16 37.64C175.12 37.74 175.06 37.83 174.99 37.9 174.92 37.98 174.84 38.04 174.74 38.08 174.64 38.13 174.55 38.15 174.44 38.15 174.34 38.15 174.25 38.14 174.15 38.1 174.07 38.06 173.98 38 173.92 37.93 173.87 37.86 173.81 37.78 173.77 37.68 173.73 37.58 173.72 37.47 173.72 37.36 173.72 37.25 173.73 37.15 173.77 37.06 173.8 36.96 173.85 36.88 173.92 36.8 173.99 36.72 174.07 36.66 174.17 36.62 174.27 36.58 174.38 36.55 174.5 36.55 174.6 36.55 174.69 36.56 174.78 36.6 174.86 36.63 174.94 36.68 175.01 36.75 175.08 36.8 175.12 36.89 175.16 36.98 175.2 37.06 175.21 37.17 175.21 37.28 175.22 37.42 175.2 37.53 175.16 37.64Z" fill="#1D1D1B"/><path d="M181.92 42.77 177.87 42.77C177.87 43.15 177.92 43.5 178.02 43.8 178.13 44.1 178.28 44.35 178.46 44.56 178.64 44.77 178.86 44.93 179.11 45.04 179.36 45.15 179.62 45.2 179.91 45.2 180.07 45.2 180.24 45.19 180.42 45.16 180.6 45.13 180.76 45.09 180.93 45.04 181.11 45 181.26 44.93 181.42 44.86 181.57 44.78 181.72 44.69 181.85 44.61 181.86 44.64 181.88 44.69 181.89 44.76 181.9 44.83 181.9 44.9 181.9 44.97 181.9 45.14 181.85 45.29 181.73 45.42 181.62 45.56 181.47 45.69 181.26 45.8 181.05 45.91 180.81 45.99 180.52 46.06 180.22 46.13 179.89 46.16 179.53 46.16 179.13 46.16 178.77 46.09 178.43 45.94 178.07 45.79 177.78 45.58 177.52 45.31 177.26 45.03 177.05 44.7 176.9 44.32 176.76 43.94 176.68 43.5 176.68 43.02 176.68 42.43 176.76 41.89 176.93 41.42 177.09 40.97 177.31 40.58 177.59 40.27 177.85 39.97 178.15 39.72 178.5 39.57 178.84 39.41 179.2 39.32 179.56 39.32 179.93 39.32 180.26 39.38 180.56 39.5 180.85 39.62 181.1 39.79 181.3 40.01 181.51 40.24 181.66 40.51 181.77 40.82 181.88 41.15 181.93 41.49 181.93 41.89 181.93 42.03 181.93 42.15 181.93 42.3 181.93 42.44 181.93 42.6 181.92 42.77ZM180.72 41.17C180.65 40.92 180.56 40.72 180.43 40.55 180.31 40.39 180.17 40.26 179.99 40.18 179.83 40.1 179.63 40.06 179.44 40.06 179.25 40.06 179.07 40.12 178.88 40.23 178.69 40.33 178.52 40.48 178.39 40.66 178.24 40.84 178.13 41.06 178.03 41.29 177.93 41.54 177.89 41.78 177.89 42.06L180.83 42.06C180.83 41.71 180.79 41.42 180.72 41.17Z" fill="#1D1D1B"/></svg>