<svg viewBox="0 0 800 314" xmlns="http://www.w3.org/2000/svg" xmlns:xlink="http://www.w3.org/1999/xlink" overflow="hidden"><defs></defs><g id="a"><rect x="243" y="-243" width="314" height="800" fill="none" transform="matrix(6.12323e-17 -1 1 6.12323e-17 243 557)"/></g><g id="b"><path d="M451.93 99.98 455.8 99.98 455.8 167.02 451.93 167.02 451.93 99.98ZM235.8 148.44 235.8 144.57 262.76 144.57 262.76 148.44 235.8 148.44ZM644.57 99.98 648.44 99.98 648.44 167.02 644.57 167.02 644.57 99.98ZM666.49 99.98 653.6 99.98 653.6 103.85 666.49 103.85C682.87 103.85 695.95 117.13 695.95 133.5 695.95 149.87 682.87 163.15 666.49 163.15L653.6 163.15 653.6 167.02 666.49 167.02C685 167.02 700.01 152.01 700.01 133.5 700.01 114.99 685 99.98 666.49 99.98ZM134.49 165.08C117.58 165.08 104.06 150.94 104.06 133.49 104.06 116.04 117.58 101.9 134.49 101.9 144.65 101.9 153.62 107.02 159.19 114.87L162.28 112.54C156 103.75 145.91 98.02 134.49 98.02 115.44 98.02 100 113.89 100 133.47 100 153.05 115.44 168.93 134.49 168.93 145.91 168.93 156 163.2 162.28 154.41L159.19 152.08C153.62 159.93 144.64 165.05 134.49 165.05ZM367.05 133.82C378.01 133.82 385.67 126.86 385.67 116.9 385.67 106.94 378.01 99.98 367.05 99.98L344.17 99.98 344.17 167.02 348.04 167.02 348.04 133.82 367.06 133.82ZM381.61 116.9C381.61 126.54 373.86 129.96 367.05 129.96L348.03 129.96 348.03 103.85 367.05 103.85C373.85 103.85 381.61 107.27 381.61 116.91ZM369.98 137.46 366.65 139.42 383.29 167.67 386.62 165.71 369.98 137.46ZM537.49 148.45 537.49 144.58 564.45 144.58 564.45 148.45 537.49 148.45ZM553.19 99.99 548.76 99.99 520.27 166.15 523.82 167.68 550.98 104.49 578.14 167.68 581.69 166.15 553.2 99.99ZM251.5 99.99 247.07 99.99 218.58 166.15 222.13 167.68 249.29 104.56 276.45 167.68 280 166.15 251.51 99.99ZM268.38 198.36 262.76 213.66 262.76 213.99 264.7 213.99 266.28 209.58 272.97 209.58 274.57 213.99 276.49 213.99 276.49 213.66 270.89 198.36 268.37 198.36ZM266.82 208 269.53 200.46 269.74 200.46 272.43 208 266.81 208ZM294.58 211.88 294.37 211.88 289.54 198.36 287.62 198.36 287.62 198.68 293.22 213.98 295.74 213.98 301.36 198.68 301.36 198.36 299.42 198.36 294.59 211.88ZM312.53 198.1C308.02 198.1 304.84 201.1 304.84 206.17 304.84 211.25 308.02 214.25 312.53 214.25 317.04 214.25 320.24 211.25 320.24 206.17 320.24 201.09 317.04 198.1 312.53 198.1ZM312.53 212.64C309.07 212.64 306.78 210.23 306.78 206.17 306.78 202.11 309.07 199.7 312.53 199.7 315.99 199.7 318.28 202.11 318.28 206.17 318.28 210.23 315.99 212.64 312.53 212.64ZM327.48 198.36 325.51 198.36 325.51 213.99 335.81 213.99 335.81 212.34 327.48 212.34 327.48 198.37ZM353.44 198.68 353.44 198.36 351.07 198.36 342.74 206.04 342.53 206.04 342.53 198.36 340.56 198.36 340.56 213.99 342.53 213.99 342.53 208.65 345.76 205.72 351.49 213.99 353.6 213.99 353.6 213.66 347.15 204.44 353.45 198.69ZM363.4 198.12C359.79 198.12 357.53 199.85 357.53 202.37 357.53 204.89 359.41 206.01 362.34 206.69L363.94 207.06C366.03 207.54 367.53 208.02 367.53 209.86 367.53 211.7 365.89 212.66 363.51 212.66 361.13 212.66 359.11 211.7 358.81 209.03L356.93 209.03 356.93 209.36C357.34 212.44 359.81 214.22 363.53 214.22 367.27 214.22 369.49 212.44 369.49 209.72 369.49 207.01 367.52 206.03 364.53 205.33L362.93 204.96C360.84 204.48 359.49 203.94 359.49 202.31 359.49 200.62 361.11 199.66 363.42 199.66 365.73 199.66 367.54 200.61 367.67 203.07L369.55 203.07 369.55 202.74C369.29 199.85 367.01 198.1 363.39 198.1ZM388.68 211.64 388.47 211.64 384.77 198.36 382.61 198.36 378.91 211.64 378.7 211.64 375.45 198.36 373.53 198.36 373.53 198.68 377.46 213.98 379.98 213.98 383.59 201 383.8 201 387.39 213.98 389.91 213.98 393.84 198.68 393.84 198.36 391.92 198.36 388.67 211.64ZM402.32 198.36 396.7 213.66 396.7 213.99 398.64 213.99 400.22 209.58 406.91 209.58 408.51 213.99 410.43 213.99 410.43 213.66 404.83 198.36 402.31 198.36ZM400.76 208 403.47 200.46 403.68 200.46 406.37 208 400.75 208ZM436.13 206.8 443.89 206.8 443.89 205.15 436.13 205.15 436.13 200 444.95 200 444.95 198.35 434.16 198.35 434.16 213.98 445.16 213.98 445.16 212.33 436.12 212.33 436.12 206.8ZM460.41 211.14 460.2 211.14 452.51 198.36 450.12 198.36 450.12 213.99 452.04 213.99 452.04 201.2 452.25 201.2 459.92 213.99 462.31 213.99 462.31 198.36 460.41 198.36 460.41 211.14ZM507.31 202.87C507.31 200.03 505.15 198.36 502.5 198.36L495.3 198.36 495.3 213.99 497.27 213.99 497.27 207.39 500.99 207.39 505.05 213.99 507.12 213.99 507.12 213.66 503.17 207.35C505.52 207.09 507.31 205.48 507.31 202.88ZM502.16 205.74 497.27 205.74 497.27 200.01 502.16 200.01C504.04 200.01 505.34 201.03 505.34 202.88 505.34 204.72 504.04 205.75 502.16 205.75ZM519.42 198.1C514.91 198.1 511.73 201.1 511.73 206.17 511.73 211.25 514.91 214.25 519.42 214.25 523.93 214.25 527.13 211.25 527.13 206.17 527.13 201.09 523.93 198.1 519.42 198.1ZM519.42 212.64C515.96 212.64 513.67 210.23 513.67 206.17 513.67 202.11 515.96 199.7 519.42 199.7 522.88 199.7 525.17 202.11 525.17 206.17 525.17 210.23 522.88 212.64 519.42 212.64ZM542.57 208.3C542.57 211.25 541.07 212.64 538.47 212.64 535.84 212.64 534.35 211.25 534.35 208.3L534.35 198.36 532.38 198.36 532.38 208.21C532.38 212.03 534.5 214.25 538.47 214.25 542.44 214.25 544.54 212.04 544.54 208.21L544.54 198.36 542.57 198.36 542.57 208.3ZM557.32 198.36 550.59 198.36 550.59 213.99 552.56 213.99 552.56 207.31 557.32 207.31C560.01 207.31 562.17 205.68 562.17 202.84 562.17 200 560.01 198.37 557.32 198.37ZM556.98 205.65 552.56 205.65 552.56 200.01 556.98 200.01C558.92 200.01 560.21 201.05 560.21 202.83 560.21 204.61 558.93 205.65 556.98 205.65ZM581.52 212.64C578.12 212.64 575.79 210.23 575.79 206.17 575.79 202.11 578.12 199.7 581.52 199.7 584.92 199.7 586.11 201.84 586.28 203.43L588.14 203.43 588.14 203.11C587.86 200.92 585.96 198.1 581.52 198.1 577.05 198.1 573.85 201.1 573.85 206.17 573.85 211.25 577.05 214.25 581.52 214.25 586.01 214.25 587.93 211.3 588.27 209.24L588.27 208.91 586.41 208.91C586.15 210.45 584.91 212.65 581.52 212.65ZM600.38 198.1C595.87 198.1 592.69 201.1 592.69 206.17 592.69 211.25 595.87 214.25 600.38 214.25 604.89 214.25 608.09 211.25 608.09 206.17 608.09 201.09 604.89 198.1 600.38 198.1ZM600.38 212.64C596.92 212.64 594.63 210.23 594.63 206.17 594.63 202.11 596.92 199.7 600.38 199.7 603.84 199.7 606.13 202.11 606.13 206.17 606.13 210.23 603.84 212.64 600.38 212.64ZM621.97 211.95 621.76 211.95 615.97 198.36 613.47 198.36 613.47 213.99 615.39 213.99 615.39 201.75 615.6 201.75 620.81 213.99 622.9 213.99 628.11 201.75 628.32 201.75 628.32 213.99 630.22 213.99 630.22 198.36 627.72 198.36 621.95 211.95ZM643.15 198.36 636.42 198.36 636.42 213.99 638.39 213.99 638.39 207.31 643.15 207.31C645.84 207.31 648 205.68 648 202.84 648 200 645.84 198.37 643.15 198.37ZM642.81 205.65 638.39 205.65 638.39 200.01 642.81 200.01C644.75 200.01 646.04 201.05 646.04 202.83 646.04 204.61 644.76 205.65 642.81 205.65ZM656.22 198.36 650.6 213.66 650.6 213.99 652.54 213.99 654.12 209.58 660.81 209.58 662.41 213.99 664.33 213.99 664.33 213.66 658.73 198.36 656.21 198.36ZM654.66 208 657.37 200.46 657.58 200.46 660.27 208 654.65 208ZM679.41 211.15 679.2 211.15 671.51 198.37 669.12 198.37 669.12 214 671.04 214 671.04 201.21 671.25 201.21 678.92 214 681.31 214 681.31 198.37 679.41 198.37 679.41 211.15ZM693.11 206.03 692.9 206.03 688.11 198.37 685.97 198.37 685.97 198.69 692.02 208.05 692.02 214 693.99 214 693.99 208.05 700.01 198.69 700.01 198.37 697.9 198.37 693.11 206.03ZM421.64 198.11C417.15 198.11 413.97 201.11 413.97 206.2 413.97 211.26 417.22 214.23 421.45 214.23 424.53 214.23 425.74 212.69 426.26 211.97L426.47 211.97 426.9 213.99 428.27 213.99 428.27 205.16 421.2 205.16 421.2 206.81 426.48 206.81 426.48 208.01C426.44 210.4 425.01 212.65 421.67 212.65 418.21 212.65 415.92 210.24 415.92 206.2 415.92 202.19 418.16 199.71 421.67 199.71 424.79 199.71 426.16 201.53 426.51 203.11L428.28 203.11 428.28 202.4C427.66 200.28 425.5 198.1 421.66 198.1ZM482.78 198.11C478.29 198.11 475.11 201.11 475.11 206.2 475.11 211.26 478.36 214.23 482.59 214.23 485.67 214.23 486.88 212.69 487.4 211.97L487.61 211.97 488.04 213.99 489.41 213.99 489.41 205.16 482.34 205.16 482.34 206.81 487.62 206.81 487.62 208.01C487.58 210.4 486.15 212.65 482.81 212.65 479.35 212.65 477.06 210.24 477.06 206.2 477.06 202.19 479.3 199.71 482.81 199.71 485.93 199.71 487.3 201.53 487.65 203.11L489.42 203.11 489.42 202.4C488.8 200.28 486.64 198.1 482.8 198.1Z" fill="#FFFFFF"/></g></svg>