<svg viewBox="0 0 730.55 105.98" xmlns="http://www.w3.org/2000/svg" xmlns:xlink="http://www.w3.org/1999/xlink" id="Laag_1" overflow="hidden"><defs/><path d="M262.37 65.34 262.37 65.34C261.04 69.06 258.93 72.51 256.28 75.44 253.63 78.63 250.45 80.75 247 82.61 243.29 84.47 239.57 85.27 235.07 85.27 230.83 85.27 226.85 84.48 223.41 82.61 219.7 80.75 216.52 78.63 213.87 75.44 211.22 72.52 209.1 69.33 207.78 65.34 206.19 61.36 205.66 57.37 205.66 52.86 205.66 48.61 206.18 44.36 207.78 40.64 209.11 36.65 211.22 33.2 213.87 30.28 216.52 27.36 219.7 24.97 223.41 23.37 226.85 21.51 230.84 20.71 235.07 20.71 239.58 20.71 243.29 21.5 247 23.37 250.44 24.96 253.63 27.35 256.28 30.28 258.93 33.2 261.05 36.65 262.37 40.64 263.96 44.36 264.5 48.61 264.5 52.86 264.5 57.11 263.97 61.36 262.37 65.34ZM265.82 15.67 265.82 15.67C262.11 11.16 257.34 7.44 251.51 4.51 245.41 1.59 239.58-0.01 233.21-0.01 226.05-0.01 219.43 1.32 213.06 3.98 206.7 6.64 201.4 10.35 196.89 15.14 192.12 19.92 188.67 25.5 186.02 31.88 183.37 38.52 182.04 45.43 182.04 52.87 182.04 60.31 183.37 67.47 186.02 73.86 188.67 80.5 192.12 86.08 196.89 90.86 201.4 95.37 206.7 99.09 213.06 101.75 219.42 104.67 226.05 106 233.21 106 239.57 106 245.67 104.41 251.51 101.49 257.6 98.57 262.11 94.85 265.82 90.33L265.82 103.61 287.29 103.61 287.29 2.39 265.82 2.39 265.82 15.67Z" fill-rule="evenodd"/><path d="M24.41 42.5 24.41 42.5C26 36.13 28.92 30.81 33.7 26.56 38.21 22.57 44.31 20.45 51.74 20.45 55.99 20.45 59.7 20.98 62.89 22.31 66.07 23.63 68.73 25.5 70.85 27.62 72.98 29.74 74.83 32.13 75.89 34.53 77.22 37.19 77.75 39.84 78.02 42.5L24.41 42.5ZM85.71 11.69 85.71 11.69C80.93 7.7 75.63 4.78 69.79 2.92 63.68 1.06 57.85 0 52.27 0 44.04 0 36.88 1.33 30.51 4.26 24.14 6.92 18.57 10.63 14.06 15.42 9.55 20.2 6.1 26.04 3.71 32.42 1.06 38.79-0.01 45.44-0.01 52.87-0.01 60.3 1.05 66.94 3.71 73.59 6.1 79.96 9.55 85.55 14.59 90.33 19.37 95.11 25.2 99.09 32.1 101.75 39 104.41 46.7 106 55.72 106 60.23 106 64.47 105.47 68.46 104.94 72.44 104.15 76.15 103.35 79.6 102.28 82.79 101.22 85.71 100.16 88.09 99.09 88.88 98.56 89.68 98.3 90.22 98.03 90.48 97.77 91.01 97.5 91.01 97.5 91.8 97.24 92.34 96.71 92.87 96.18 94.73 94.32 96.06 91.66 96.06 89.01 96.06 86.36 94.73 83.7 92.87 81.84 91.01 79.98 88.36 78.92 85.71 78.92 84.12 78.92 82.79 79.19 81.47 79.72 78.81 80.78 76.16 81.84 73.77 82.64 67.93 84.23 61.83 85.3 55.73 85.3 50.69 85.3 46.18 84.77 42.46 83.44 38.74 82.11 35.56 80.52 32.91 78.13 30.26 76.01 28.13 73.35 26.81 70.16 25.22 67.24 24.16 64.05 23.63 60.6L101.63 60.6C101.9 59.01 101.9 57.15 102.16 55.29L102.16 49.72C102.16 40.95 100.83 33.25 97.65 27.14 94.47 20.77 90.75 15.72 85.71 11.74Z" fill-rule="evenodd"/><path d="M442.23 42.5 442.23 42.5C443.82 36.13 446.99 30.81 451.49 26.56 456.25 22.57 462.08 20.45 469.49 20.45 473.72 20.45 477.43 20.98 480.87 22.31 484.05 23.63 486.69 25.5 488.81 27.62 490.93 29.74 492.52 32.13 493.84 34.53 494.9 37.19 495.69 39.84 495.95 42.5L442.22 42.5ZM503.64 11.69 503.64 11.69C498.87 7.7 493.58 4.78 487.49 2.92 481.67 1.06 475.85 1.77636e-15 470.02 1.77636e-15 462.08 1.77636e-15 454.94 1.33 448.58 4.26 441.97 6.92 436.67 10.63 432.17 15.42 427.67 20.21 423.96 26.04 421.58 32.42 419.2 38.79 417.87 45.44 417.87 52.87 417.87 60.3 419.2 66.94 421.58 73.59 423.96 79.96 427.67 85.55 432.43 90.33 437.19 95.11 443.02 99.09 449.9 101.75 456.78 104.41 464.72 106 473.46 106 477.96 106 482.19 105.47 486.43 104.94 490.4 104.15 494.11 103.35 497.28 102.28 500.72 101.22 503.64 100.16 506.02 99.09 506.81 98.56 507.61 98.3 508.13 98.03 508.13 97.77 508.92 97.5 508.92 97.5 509.45 97.24 510.25 96.71 510.78 96.18 512.63 94.32 513.69 91.66 513.69 89.01 513.69 86.36 512.63 83.7 510.78 81.84 508.66 79.98 506.28 78.92 503.37 78.92 502.04 78.92 500.73 79.19 499.4 79.72 496.76 80.78 494.11 81.84 491.72 82.64 485.89 84.23 479.81 85.3 473.46 85.3 468.43 85.3 464.2 84.77 460.23 83.44 456.52 82.11 453.35 80.52 450.7 78.13 448.32 76.01 446.2 73.35 444.61 70.16 443.28 67.24 442.23 64.05 441.44 60.6L519.25 60.6C519.51 59.01 519.78 57.15 519.78 55.29 520.04 53.17 520.04 51.31 520.04 49.72 520.04 40.95 518.45 33.25 515.28 27.14 512.37 20.77 508.4 15.72 503.64 11.74Z" fill-rule="evenodd"/><path d="M721.85 54.7 721.85 54.7C716.02 49.41 707.06 45.18 694.9 42.28 687.79 40.42 683.06 38.57 680.43 36.72 678.06 34.87 676.72 32.49 676.72 29.58 676.72 23.76 681.78 20.86 691.76 20.86 696.75 20.86 698.35 21.12 704.69 22.18 708.08 22.71 709.68 23.5 713.14 24.3 716.28 25.36 720.25 26.15 723.38 25.09 726.58 24.03 728.69 20.86 728.95 17.95 729.21 15.31 728.95 13.19 727.09 10.81 726 9.22 723.63 7.64 721.84 6.58 719.15 5.26 714.16 3.67 711.02 2.88 705.19 1.56 698.6 0.76 691.75 0.76 679.91 0.76 670.69 3.41 663.78 8.43 656.93 13.72 653.54 20.59 653.54 29.58 653.54 37.77 656.16 44.65 661.67 50.2 667.24 55.49 676.46 59.72 689.13 62.89 695.47 64.47 700.2 66.33 703.08 68.18 705.7 70.03 707.3 72.67 707.3 75.85 707.3 82.72 702.05 86.16 691.74 86.16 686.23 86.16 679.64 84.57 672.73 82.19 670.36 81.13 668.25 80.34 665.88 79.55 663.77 79.02 661.4 78.76 661.4 78.76 658.52 78.5 656.15 79.02 654.04 80.87 652.18 82.46 650.65 85.1 650.65 88.01 650.65 90.65 651.16 92.5 653.27 94.88 653.27 94.88 654.55 96.46 658.26 98.58 661.65 100.69 666.2 101.75 670.1 102.81 676.69 104.92 683.54 105.98 691.74 105.98 697.82 105.98 703.33 105.46 708.06 103.87 712.86 102.28 716.77 100.17 719.97 97.79 723.36 95.15 725.99 91.97 727.84 88.01 729.7 84.3 730.53 80.34 730.53 75.85 730.53 67.12 727.59 59.98 721.82 54.7Z" fill-rule="evenodd"/><path d="M616.29 65.61 616.29 65.61C614.7 69.59 612.59 73.05 609.95 75.97 607.31 78.89 604.14 81.28 600.44 82.88 596.74 84.47 592.78 85.27 588.55 85.27 584.06 85.27 580.09 84.48 576.66 82.88 572.96 81.29 569.79 78.89 566.89 75.97 564.25 73.05 562.13 69.59 560.55 65.61 558.97 61.62 558.18 57.37 558.18 52.86 558.18 48.35 558.97 44.09 560.55 40.37 562.14 36.38 564.25 32.93 566.89 30.01 569.8 27.09 572.96 24.7 576.66 23.1 580.1 21.51 584.06 20.71 588.55 20.71 592.77 20.71 596.74 21.5 600.44 23.1 604.14 24.69 607.31 27.09 609.95 30.01 612.59 32.93 614.71 36.38 616.29 40.37 617.87 44.09 618.66 48.34 618.66 52.86 618.66 57.38 617.87 61.62 616.29 65.61ZM626.06 15.14 626.06 15.14C621.3 10.36 615.49 6.64 608.89 3.98 602.29 1.32 595.68-0.01 588.55-0.01 581.42-0.01 574.28 1.32 567.68 3.98 561.34 6.64 555.52 10.35 550.77 15.14 545.75 19.92 541.79 25.5 538.88 31.88 536.24 38.52 534.66 45.43 534.66 52.87 534.66 60.31 536.25 67.47 538.88 73.86 541.79 80.5 545.76 86.08 550.77 90.86 555.53 95.37 561.34 99.09 567.68 101.75 574.29 104.67 581.15 106 588.55 106 595.95 106 602.29 104.68 608.89 101.75 615.5 99.09 621.31 95.38 626.06 90.86 631.08 86.08 635.05 80.5 637.95 73.86 640.86 67.48 642.21 60.57 642.21 52.87 642.21 45.17 640.87 38.53 637.95 31.88 635.04 25.51 631.07 19.92 626.06 15.14Z" fill-rule="evenodd"/><path d="M389.87 9.57 389.87 9.57C386.45 6.11 382.5 3.72 378.28 2.39 374.07 0.8 368.01 4.44089e-16 363.53 4.44089e-16 359.32 4.44089e-16 355.89 0.27 351.94 1.33 348.52 2.13 344.83 3.99 342.45 5.59 340.08 6.91 337.98 8.51 336.39 10.37 334.55 11.97 333.23 13.56 332.18 14.89L332.18 2.39 310.32 2.39 310.32 103.68 332.97 103.68 332.97 55.03C333.23 46.52 333.76 42.27 335.61 38.28 337.19 34.29 339.3 31.37 341.93 28.71 344.3 26.05 347.72 24.19 350.62 22.86 354.04 21.53 356.94 21.27 359.58 21.27 364.58 21.27 370.11 22.59 374.07 27.11 377.76 30.83 380.13 38.28 380.13 45.19L380.13 103.67 402.52 103.67 402.52 42.54C402.52 34.83 400.94 27.38 398.83 22.07 396.46 17.02 393.56 12.76 389.87 9.58Z" fill-rule="evenodd"/><path d="M171.45 0 170.39 0C166.95 0 163.78 0.54 160.87 1.33 160.35 1.33 159.81 1.33 159.28 1.6 156.11 2.66 152.4 4.26 150.02 5.85 147.65 7.45 145.53 9.04 143.68 10.64 142.09 12.23 140.77 13.83 139.71 15.16L139.45 15.43 139.71 2.4 118.29 2.4 118.29 103.68 140.5 103.68 140.5 58.49C141.03 47.32 141.83 45.47 143.41 41.21 145 36.69 146.58 34.3 149.22 31.37 151.87 28.45 155.04 26.05 158.75 24.73 162.19 23.13 165.09 22.6 169.59 22.07 171.18 21.81 172.5 21.81 173.3 21.54 179.12 20.48 182.82 17.02 182.82 10.91 182.82 4.8 179.12 0.8 171.45-1.77636e-15Z" fill-rule="evenodd"/></svg>